<?xml version="1.0" standalone="no"?>
<!DOCTYPE svg PUBLIC "-//W3C//DTD SVG 1.1//EN" "http://www.w3.org/Graphics/SVG/1.1/DTD/svg11.dtd" >
<svg xmlns="http://www.w3.org/2000/svg">
<metadata></metadata>
<defs>
<font id="spinnakerregular" horiz-adv-x="0" >
<font-face units-per-em="2048" ascent="1638" descent="-410" />
<missing-glyph horiz-adv-x="584" />
<glyph />
<glyph />
<glyph />
<glyph />
<glyph />
<glyph />
<glyph />
<glyph />
<glyph unicode="&#x9;" />
<glyph unicode="&#xd;" horiz-adv-x="584" />
<glyph />
<glyph />
<glyph />
<glyph />
<glyph />
<glyph />
<glyph />
<glyph />
<glyph />
<glyph />
<glyph unicode=" "  horiz-adv-x="584" />
<glyph unicode="&#x09;" horiz-adv-x="584" />
<glyph unicode="&#xa0;" horiz-adv-x="584" />
<glyph unicode="!" horiz-adv-x="602" d="M199 1415h205l-30 -1005h-145zM211 21q-34 34 -34 90t34 89.5t90 33.5t90 -33.5t34 -89.5t-34 -90t-90 -34t-90 34z" />
<glyph unicode="&#x22;" horiz-adv-x="881" d="M522 1417h194l-30 -477h-134zM165 1417h194l-30 -477h-134z" />
<glyph unicode="#" horiz-adv-x="1589" d="M389 406h-218v154h246l65 346h-311v154h339l70 375l153 -39l-63 -336h368l69 375l153 -38l-62 -337h220v-154h-248l-64 -346h312v-154h-340l-78 -425l-153 39l71 386h-369l-79 -425l-153 38zM946 560l64 346h-368l-65 -346h369z" />
<glyph unicode="$" horiz-adv-x="1288" d="M211 406q163 -123 354 -152v405q-195 37 -271 82t-112 99.5t-36 135t35.5 143t94.5 107.5q117 89 289 106v139h153v-139q207 -21 371 -126l-69 -162q-140 84 -302 115v-357q210 -42 287.5 -86t116.5 -100.5t39 -143.5q0 -164 -135 -268q-120 -93 -308 -117v-183h-153v178 q-185 12 -353 102q-53 28 -96 62zM565 1165q-152 -18 -203 -101q-18 -30 -18 -69t17 -64t47 -43q53 -34 157 -56v333zM718 254q167 21 224 120q21 36 21 79t-19 70t-52 47q-56 33 -174 58v-374z" />
<glyph unicode="%" horiz-adv-x="1468" d="M1246 1439l121 -100l-1135 -1356l-121 100zM368 856q-128 0 -212 80q-87 83 -87 207t87 209q86 84 214 84q127 0 212 -82q87 -82 87 -207t-87 -209q-87 -82 -214 -82zM488.5 1022.5q43.5 45.5 43.5 120.5q0 118 -96 159q-31 13 -68 13q-75 0 -118.5 -46.5t-43.5 -103 t11.5 -87.5t32.5 -54q46 -47 120.5 -47t118 45.5zM799 267q0 124 87 209q86 84 214 84q127 0 212 -82q87 -82 87 -207t-87 -209q-87 -82 -214 -82q-128 0 -212 80q-87 83 -87 207zM979.5 392.5q-43.5 -46.5 -43.5 -103t11.5 -87.5t32.5 -54q46 -47 120.5 -47t118 45.5 t43.5 120.5q0 118 -96 159q-31 13 -68 13q-75 0 -118.5 -46.5z" />
<glyph unicode="&#x26;" horiz-adv-x="1535" d="M1099 168q-185 -187 -454 -187q-217 0 -356 101q-152 111 -152 305q0 256 272 421q-88 130 -88 226.5t31 170.5t86 125q114 106 305 106q213 0 382 -136l-93 -148q-96 84 -228 110q-40 8 -79 8q-98 0 -153 -52.5t-55 -150.5q0 -161 421 -517l139 -116q79 168 79 378 l187 2q0 -276 -126 -491l279 -211l-123 -141zM965 270q-300 235 -451 406q-141 -78 -170 -178q-11 -36 -11 -90t28 -104t74 -85q95 -72 208 -72q197 0 322 123z" />
<glyph unicode="'" horiz-adv-x="524" d="M165 1416h194l-30 -477h-134z" />
<glyph unicode="(" horiz-adv-x="800" d="M556 -307q-419 368 -419 940q0 587 432 957l99 -105q-265 -277 -326 -592q-21 -109 -21 -242t27 -257t75 -230q87 -193 256 -371z" />
<glyph unicode=")" horiz-adv-x="800" d="M246.034 1589.98q418.975 -367.978 418.975 -939.942q0 -586.965 -431.974 -956.942l-98.9941 104.994q264.983 276.983 325.979 591.964q20.999 108.993 20.999 241.985q0 132.991 -26.998 256.984q-26.999 123.992 -74.9961 229.985q-86.9941 192.988 -255.984 370.978 z" />
<glyph unicode="*" horiz-adv-x="1107" d="M480 1218l-236 -117l-57 98l219 146l-219 146l57 98l236 -118l16 264h114l16 -263l237 118l57 -99l-221 -146l221 -146l-57 -99l-237 118l-16 -264h-114z" />
<glyph unicode="+" horiz-adv-x="1336" d="M207 614h368v386h185v-386h369v-168h-369v-386h-185v386h-368v168z" />
<glyph unicode="," horiz-adv-x="527" d="M211 32q-52 34 -52 90q0 77 77 104q22 8 48 8t49 -10t39 -27q35 -36 35 -79t-10.5 -80.5t-27.5 -75.5t-38.5 -75t-44.5 -69q-50 -68 -83 -97l-91 51q53 73 86 194q11 37 13 66z" />
<glyph unicode="-" horiz-adv-x="1136" d="M207 669h722v-154h-722v154z" />
<glyph unicode="." horiz-adv-x="527" d="M192 21q-34 34 -34 90t34 89.5t90 33.5t90 -33.5t34 -89.5t-34 -90t-90 -34t-90 34z" />
<glyph unicode="/" horiz-adv-x="997" d="M749 1561h175l-676 -2028h-175z" />
<glyph unicode="0" horiz-adv-x="1662" d="M137 696q0 160 48.5 297t139.5 235q193 208 515 208q311 0 499 -200q186 -197 186 -513q0 -333 -188 -535q-193 -208 -515 -208q-311 0 -500 200q-185 195 -185 516zM333 721q0 -120 33.5 -225t98.5 -183q139 -167 375 -167q230 0 362 156q127 150 127 391 q0 252 -132 410q-139 167 -375 167q-229 0 -362 -156q-127 -148 -127 -393z" />
<glyph unicode="1" horiz-adv-x="853" d="M484 1237l-375 -212l-54 161l429 230h185v-1416h-185v1237z" />
<glyph unicode="2" horiz-adv-x="1249" d="M148 168l375 324q366 319 366 510q0 139 -74.5 202.5t-229.5 63.5q-126 0 -303 -70q-44 -17 -69 -30l-51 159q135 69 336 99q64 10 143 10t165.5 -29t148.5 -83q130 -113 130 -310q0 -269 -379 -588l-298 -251l714 1v-176h-974v168z" />
<glyph unicode="3" horiz-adv-x="1270" d="M335 814q123 -6 194 -6t136 13t115 42q111 64 111 193q0 106 -91 162q-81 50 -205 50q-140 0 -294 -56q-45 -17 -78 -34l-51 159q132 66 339 91q61 8 132.5 8t155 -23.5t147.5 -70.5q141 -102 141 -274q0 -162 -131 -265q-44 -34 -102 -54l-1 -9q280 -73 280 -334 q0 -194 -177 -315q-162 -111 -381 -111q-287 0 -463 109l53 166q128 -74 319 -99q61 -8 121 -8t119.5 16t105.5 47q103 69 103 186q0 146 -177 209q-164 57 -421 27v181z" />
<glyph unicode="4" horiz-adv-x="1398" d="M77 506l767 910h185v-908h280v-168h-280v-340h-185v340h-713zM844 508v683l-562 -683h562z" />
<glyph unicode="5" horiz-adv-x="1271" d="M166 255q188 -107 403 -107q156 0 257 70q108 74 108 209q0 163 -200 223q-197 58 -543 1v765h855v-168h-670v-413q312 42 522 -49q236 -102 236 -350q0 -219 -188 -344q-168 -112 -406 -112q-252 0 -427 109z" />
<glyph unicode="6" horiz-adv-x="1418" d="M347 779q198 113 442 113q218 0 355 -104q148 -110 148 -311q0 -220 -166 -361q-161 -136 -393 -136q-277 0 -437 170q-158 168 -158 451q0 587 389 769q155 73 352 66q176 -7 339 -78l-48 -159q-309 124 -526 39q-243 -96 -297 -459zM334 576q0 -193 112 -311 q114 -119 305 -119q147 0 243 80q102 85 102 221q0 129 -96 205q-91 72 -229 72q-188 0 -353 -82q-49 -24 -84 -49v-17z" />
<glyph unicode="7" horiz-adv-x="1105" d="M856 1258q-157 -10 -286 -10h-509v168h997v-168q-173 -183 -366 -580q-195 -405 -240 -668h-205q67 313 263 708q183 368 346 550z" />
<glyph unicode="8" horiz-adv-x="1332" d="M169.5 212.5q-42.5 78.5 -42.5 161t20.5 136t54.5 98.5q72 93 179 130v6q-88 25 -149 108q-64 86 -64 185.5t43 172t113 122.5q145 104 348 104q206 0 342 -96q145 -104 145 -278q0 -160 -131 -260q-44 -33 -102 -53v-5q200 -56 260 -221q19 -54 19 -119.5t-22 -123.5 t-60.5 -105.5t-91 -83.5t-113.5 -61q-122 -50 -246 -50t-219.5 25.5t-168 77t-115 130zM547 822q57 -14 116.5 -14t111.5 17.5t94 49.5q94 72 94 175q0 106 -91 165q-82 53 -218 53q-188 0 -265 -115q-26 -39 -26 -99t22.5 -108.5t63.5 -79t98 -44.5zM351 515 q-31 -45 -31 -109.5t29 -112.5t77 -81q97 -64 246 -64q225 0 306 137q27 47 27 111.5t-31 111t-81 76.5q-98 59 -239 59q-215 0 -303 -128z" />
<glyph unicode="9" horiz-adv-x="1418" d="M1091.02 637.048q-197.988 -112.993 -441.974 -112.993q-217.986 0 -354.978 103.993q-147.991 109.993 -147.991 310.981q0 219.986 165.989 360.978q160.99 135.992 392.977 135.992q276.982 0 436.973 -169.99q157.991 -167.989 157.991 -450.972 q0 -586.965 -388.977 -768.953q-154.99 -72.9961 -351.979 -65.9961q-175.989 6.99902 -338.979 77.9951l47.9971 158.99q308.981 -123.992 525.968 -38.998q242.985 95.9941 296.982 458.973zM1104.02 840.035q0 192.988 -111.993 310.981 q-113.993 118.992 -304.981 118.992q-146.991 0 -242.985 -79.9951q-101.994 -84.9951 -101.994 -220.986q0 -128.992 95.9941 -204.987q90.9951 -71.9961 228.986 -71.9961q187.988 0 352.979 81.9951q48.9971 23.999 83.9951 48.9971v16.999z" />
<glyph unicode=":" horiz-adv-x="527" d="M372 601q-34 -34 -90 -34t-90 34t-34 90t34 89.5t90 33.5t90 -33.5t34 -89.5t-34 -90zM192 21q-34 34 -34 90t34 89.5t90 33.5t90 -33.5t34 -89.5t-34 -90t-90 -34t-90 34z" />
<glyph unicode=";" horiz-adv-x="527" d="M372 601q-34 -34 -90 -34t-90 34t-34 90t34 89.5t90 33.5t90 -33.5t34 -89.5t-34 -90zM211 32q-52 34 -52 90q0 77 77 104q22 8 48 8t49 -10t39 -27q35 -36 35 -79t-10.5 -80.5t-27.5 -75.5t-38.5 -75t-44.5 -69q-50 -68 -83 -97l-91 51q53 73 86 194q11 37 13 66z" />
<glyph unicode="&#x3c;" horiz-adv-x="1318" d="M107 743l814 626l113 -148l-721 -553l720 -476l-106 -157l-820 536v172z" />
<glyph unicode="=" horiz-adv-x="1336" d="M207 829h922v-154h-922v154zM207 429h922v-154h-922v154z" />
<glyph unicode="&#x3e;" horiz-adv-x="1318" d="M1197.01 672.045l-813.95 -625.961l-112.993 147.99l720.956 552.967l-719.956 475.971l105.993 156.99l819.95 -535.967v-171.99z" />
<glyph unicode="?" horiz-adv-x="1035" d="M82 1342q210 94 443 94q288 0 395 -144q39 -53 39 -124t-23.5 -122.5t-61.5 -94.5t-86 -81l-94 -74q-123 -96 -160 -151q-73 -111 -46 -235l-162 -32q-39 219 103 378q68 76 143.5 135.5t111.5 94.5q79 77 79 145q0 139 -256 139q-119 0 -299 -52q-49 -14 -82 -28z M351 21q-34 34 -34 90t34 89.5t90 33.5t90 -33.5t34 -89.5t-34 -90t-90 -34t-90 34z" />
<glyph unicode="@" horiz-adv-x="1932" d="M1219 818l13 65h152l-89 -435q-17 -84 2.5 -137t78 -53t106 41t80.5 103q67 124 67 251t-41 219t-114 158q-149 135 -382 135q-197 0 -385 -109q-180 -104 -289 -274q-115 -176 -115 -339.5t51.5 -267t142.5 -169.5q178 -129 482 -129l-39 -120q-354 0 -563 151 q-230 167 -230 485q0 257 147 472q136 198 362 316q220 115 454 115q286 0 477 -160q198 -166 198 -439q0 -214 -123 -391q-82 -116 -199 -164q-59 -25 -126 -25q-163 0 -199 138q-144 -138 -297 -138q-132 0 -210 89q-77 87 -77 223q0 117 62 233q59 112 161 184 q104 73 233.5 73t208.5 -101zM1190 670q-109 102 -229 102q-99 0 -169 -106q-64 -99 -64 -210q0 -129 75 -176q26 -17 67 -17t82.5 15t76.5 38q58 37 109 93q2 9 3.5 18.5t4.5 20.5zM1261 741h1h-1z" />
<glyph unicode="A" horiz-adv-x="1430" d="M687 1416h105l613 -1416h-202l-134 310h-709l-145 -310h-190zM997 478l-128 297q-24 56 -47 116l-40 113q-38 110 -45 150h-12q-8 -40 -36 -114l-51 -130q-23 -56 -50 -114l-149 -318h558z" />
<glyph unicode="B" horiz-adv-x="1520" d="M184 1416h521q253 0 387 -62q171 -81 171 -279q0 -86 -61 -167q-55 -74 -126 -96q143 -27 229 -125q88 -101 88 -246q0 -308 -335 -403q-137 -38 -321 -38h-553v1416zM723 866q226 0 312 102q32 38 32 99t-37.5 97.5t-95.5 55.5q-88 28 -258 28h-307v-382h354zM1197 429 q0 269 -441 269h-387v-530h393q303 0 398 129q37 51 37 132z" />
<glyph unicode="C" horiz-adv-x="1492" d="M1329 1122q-166 148 -427 148q-237 0 -402 -156q-167 -157 -167 -391q0 -242 172 -410q171 -167 415 -167q177 0 353 90q52 26 90 57l72 -138q-147 -126 -379 -163q-75 -12 -154 -12q-157 0 -296 52.5t-243.5 147t-165 225.5t-60.5 264t27.5 230.5t78.5 180t122 148.5 t158 112q182 96 397 96q291 0 502 -166z" />
<glyph unicode="D" horiz-adv-x="1600" d="M184 1416h581q325 0 523 -182q205 -188 205 -503q0 -333 -210 -533q-207 -198 -546 -198h-553v1416zM762 168q249 0 393 150q142 148 142 401q0 244 -157 388q-153 141 -404 141h-367v-1080h393z" />
<glyph unicode="E" horiz-adv-x="1370" d="M184 1416h1057v-168h-872v-382h777v-168h-777v-530h892v-168h-1077v1416z" />
<glyph unicode="F" horiz-adv-x="1248" d="M184 1416h957v-168h-772v-602h697v-168h-697v-478h-185v1416z" />
<glyph unicode="G" horiz-adv-x="1704" d="M163 494.5q-26 93.5 -26 200.5t27.5 204.5t78.5 180t122 148.5t158 112q182 96 397 96q316 0 523 -176l-104 -142q-175 152 -437 152q-237 0 -402 -156q-167 -157 -167 -391q0 -255 165 -416q164 -161 419 -161q193 0 345 113q43 32 73 67v153h-491v168h676v-647h-185 v137q-114 -103 -305 -143q-70 -14 -163 -14t-189 23.5t-178 68t-149.5 107.5t-114.5 142.5t-73 173z" />
<glyph unicode="H" horiz-adv-x="1607" d="M184 1416h185v-769h869v769h185v-1416h-185v479h-869v-479h-185v1416z" />
<glyph unicode="I" horiz-adv-x="553" d="M184 1416h185v-1416h-185v1416z" />
<glyph unicode="J" horiz-adv-x="1190" d="M540 146q281 0 281 356v914h185v-894q0 -392 -271 -504q-92 -38 -203.5 -38t-191 40t-134.5 108q-116 140 -116 345l180 25q0 -144 68 -242q75 -110 202 -110z" />
<glyph unicode="K" horiz-adv-x="1404" d="M184 1416h190v-705l735 705h239l-770 -734l803 -682h-292l-715 625v-625h-190v1416z" />
<glyph unicode="L" horiz-adv-x="1208" d="M184 1416h185v-1248h772v-168h-957v1416z" />
<glyph unicode="M" horiz-adv-x="1947" d="M287 1415h55l625 -685l624 685h59l120 -1415h-181l-91 1065l-529 -586h-20l-513 577l-80 -1056h-179z" />
<glyph unicode="N" horiz-adv-x="1607" d="M184 1416h162l912 -1118v1118h165v-1416h-155l-919 1126v-1126h-165v1416z" />
<glyph unicode="O" horiz-adv-x="1822" d="M197.5 405q-60.5 131 -60.5 264t27.5 230.5t78.5 180t122 148.5t158 112q182 96 397 96q206 0 384 -92q173 -90 276 -250q105 -167 105 -371q0 -323 -228 -535q-143 -133 -345 -183q-101 -25 -234 -25t-272 52.5t-243.5 147t-165 225.5zM377.5 941q-44.5 -100 -44.5 -220 t46 -225t126 -183q171 -167 415 -167q237 0 402 156q167 158 167 391q0 158 -80 293q-75 128 -211 206q-134 78 -274 78t-243.5 -41.5t-181 -114.5t-122 -173z" />
<glyph unicode="P" horiz-adv-x="1470" d="M184 1416h561q284 0 454 -128q184 -138 184 -397q0 -270 -194 -430q-184 -151 -472 -151h-348v-310h-185v1416zM742 478q204 0 322 102q123 106 123 299q0 185 -138 282q-124 87 -333 87h-347v-770h373z" />
<glyph unicode="Q" horiz-adv-x="1823" d="M188 427q-51 122 -51 248.5t27.5 224t78.5 180t122 148.5t158 112q182 96 397 96q206 0 384 -92q173 -90 276 -250q105 -167 105 -371q0 -279 -175 -481q-171 -195 -442 -246l351 -242l-200 -83l-421 316q-281 32 -470 226q-89 92 -140 214zM377.5 941 q-44.5 -100 -44.5 -220t46 -225t126 -183q171 -167 415 -167q237 0 402 156q167 158 167 391q0 158 -80 293q-75 128 -211 206q-134 78 -274 78t-243.5 -41.5t-181 -114.5t-122 -173z" />
<glyph unicode="R" horiz-adv-x="1550" d="M1423 980q0 -315 -290 -435l269 -545h-215l-243 493q-99 -15 -207 -15h-368v-478h-185v1416h581q314 0 469 -86q189 -104 189 -350zM762 646q224 0 332 62q133 77 133 260q0 238 -308 270q-89 10 -183 10h-367v-602h393z" />
<glyph unicode="S" horiz-adv-x="1459" d="M223 319q186 -120 378 -158q65 -13 132 -13t138.5 12.5t126.5 41.5q124 66 124 203q0 141 -208 197q-61 16 -130 29l-143 25q-273 47 -381 138q-100 83 -100 224q0 192 184 311q164 107 387 107q214 0 385 -70q61 -24 127 -60l-68 -163q-145 87 -342 113q-62 9 -120 9 q-133 0 -235 -51q-119 -60 -119 -166q0 -112 151 -164q68 -24 154 -39l178 -31q225 -42 312 -95t128.5 -118.5t41.5 -174t-51 -194.5t-136 -142q-166 -111 -423 -111q-240 0 -451 104q-69 34 -128 78z" />
<glyph unicode="T" horiz-adv-x="1383" d="M599 1248h-532v168h1249v-168h-532v-1248h-185v1248z" />
<glyph unicode="U" horiz-adv-x="1592" d="M153 1416h185v-733q0 -386 257 -499q88 -38 208 -38t204.5 35t139.5 101q107 127 107 371v763h185v-733q0 -509 -367 -655q-122 -48 -282 -48t-278.5 46.5t-197.5 133.5q-161 176 -161 493v763z" />
<glyph unicode="V" horiz-adv-x="1463" d="M25 1416h207l368 -813q25 -56 46 -111q48 -123 74 -201h9q14 45 31 91l36 98q21 54 47 110l374 826h196l-650 -1436h-88z" />
<glyph unicode="W" horiz-adv-x="2118" d="M47 1416h215q312 -775 330 -821q41 -112 54 -152l25 -71h9q13 47 28 96l34 106q19 58 42 121l259 721h57l267 -706l115 -338h9l71 228q19 60 39 113l255 703h215l-558 -1436h-57l-304 802q-13 32 -26 73l-54 165h-6l-26 -87q-11 -37 -24 -77l-314 -876h-57z" />
<glyph unicode="X" horiz-adv-x="1443" d="M597 714l-550 702h243l428 -547l425 547h221l-535 -688l571 -728h-243l-449 572l-444 -572h-221z" />
<glyph unicode="Y" horiz-adv-x="1291" d="M559 604l-522 812h203l413 -647l410 647h191l-510 -809v-607h-185v604z" />
<glyph unicode="Z" horiz-adv-x="1318" d="M107 168l873 1081h-873v168h1104v-168l-873 -1081h873v-168h-1104v168z" />
<glyph unicode="[" horiz-adv-x="733" d="M193 1616h417v-168h-250v-1610h250v-169h-417v1947z" />
<glyph unicode="\" horiz-adv-x="997" d="M73 1561h183l668 -2028h-183z" />
<glyph unicode="]" horiz-adv-x="733" d="M596.012 -329.901h-416.975v167.989h249.984v1609.9h-249.984v168.989h416.975v-1946.88z" />
<glyph unicode="^" horiz-adv-x="1288" d="M65 722l574 714l584 -713l-107 -98l-483 531l-457 -524z" />
<glyph unicode="_" horiz-adv-x="1236" d="M1129 0v-154h-1022v154h1022z" />
<glyph unicode="`" horiz-adv-x="591" d="M60 1408l114 117l333 -286l-91 -91z" />
<glyph unicode="a" horiz-adv-x="1201" d="M837 128q-183 -148 -385 -148q-141 0 -237 74q-103 80 -103 209q0 266 354 355q143 36 343 40q-6 163 -159 192q-50 10 -94 10t-78 -4t-70 -11q-79 -15 -134 -37l-53 142q140 70 338 70q309 0 407 -197q33 -68 33 -162v-319q0 -102 15 -136q27 -65 95 -83l-28 -123 q-187 -22 -244 128zM343 383.5q-41 -42.5 -41 -91.5t14 -74.5t37 -42.5q47 -35 110 -35t113.5 13.5t93.5 35.5q84 42 139 104v216q-238 -12 -331.5 -47.5t-134.5 -78z" />
<glyph unicode="b" horiz-adv-x="1269" d="M374 919q135 101 324 101q215 0 347 -142q129 -138 129 -358q0 -239 -188 -394q-179 -146 -436 -146q-113 0 -224 16t-142 24v1541h190v-642zM374 174q76 -34 178.5 -34t178.5 25t132 72q121 102 121 271q0 149 -78 247q-85 105 -221 105q-147 0 -253 -78 q-36 -26 -58 -60v-548z" />
<glyph unicode="c" horiz-adv-x="990" d="M921 214l35 -141q-125 -93 -368 -93q-232 0 -364 142q-129 138 -129 376q0 222 145 372q147 150 367 150q198 0 322 -91l-66 -149q-113 84 -274 84q-138 0 -223 -106q-81 -100 -81 -248q0 -159 85 -262q89 -108 245 -108t306 74z" />
<glyph unicode="d" horiz-adv-x="1269" d="M911 95q-141 -115 -340 -115q-215 0 -347 142q-129 138 -129 358q0 239 188 394q179 146 436 146q101 0 176 -15v556h190v-1561h-145zM895 836q-105 24 -193 24t-164 -25t-132 -72q-121 -102 -121 -271q0 -148 78 -247q83 -105 221 -105q156 0 258 78q32 25 53 58v560z " />
<glyph unicode="e" horiz-adv-x="1106" d="M979.5 778.5q30.5 -80.5 30.5 -169.5t-20 -209h-696q22 -121 98 -190.5t215 -69.5q186 0 341 68l32 -143q-103 -60 -294 -79q-53 -6 -138 -6t-178 34t-154 100q-121 131 -121 384q0 222 145 372q147 150 367 150q181 0 289 -108q53 -53 83.5 -133.5zM829 547l4 54 q0 183 -137 243q-46 20 -110 20t-117.5 -25t-92.5 -68q-80 -88 -90 -224h543z" />
<glyph unicode="f" horiz-adv-x="776" d="M832 1355q-94 49 -185 49t-136.5 -28t-70.5 -76q-45 -84 -45 -250v-50h386v-154h-386v-846h-191v846h-185v154h185v38q0 374 243 484q84 38 172 38q145 0 258 -54z" />
<glyph unicode="g" horiz-adv-x="1229" d="M371 413q-48 -57 -48 -106.5t34.5 -70.5t91 -34t129 -21.5t147.5 -18.5t147.5 -25.5t129.5 -42.5q125 -62 125 -178q0 -176 -157 -294q-148 -109 -343 -109q-184 0 -314 72q-151 84 -151 236q0 96 74 191q22 28 46 50q-145 56 -145 179q0 157 132 274q-46 71 -46 155.5 t35.5 149t94.5 108.5q121 92 289.5 92t285.5 -92q66 63 206 86q41 6 78 6l-8 -155q-119 -13 -183 -47q34 -66 34 -142t-35.5 -140t-94.5 -108q-121 -90 -280.5 -90t-273.5 75zM419 764q-19 -36 -19 -84t19.5 -84.5t53.5 -61.5q67 -48 172 -48q156 0 214 106q19 35 19 83 t-19.5 85t-53.5 62q-67 49 -172 49q-156 0 -214 -107zM421 26q-69 -76 -69 -181q0 -85 99 -133q83 -39 163 -39t132 10.5t94 33.5q97 52 97 146q0 89 -172 119q-74 13 -180.5 23.5t-163.5 20.5z" />
<glyph unicode="h" horiz-adv-x="1337" d="M374 913q148 107 344 107q456 0 456 -501v-519h-189l-1 507q0 173 -60 257q-67 96 -219 96q-163 0 -273 -80q-36 -25 -58 -58v-722h-190v1562l190 -1v-648z" />
<glyph unicode="i" horiz-adv-x="558" d="M369 1321q-34 -34 -90 -34t-90 34t-34 90t34 89.5t90 33.5t90 -33.5t34 -89.5t-34 -90zM184 1000h190v-1000h-190v1000z" />
<glyph unicode="j" horiz-adv-x="558" d="M369 1321q-34 -34 -90 -34t-90 34t-34 90t34 89.5t90 33.5t90 -33.5t34 -89.5t-34 -90zM184 1000h190v-1065q0 -242 -130 -352q-45 -38 -109 -68l-80 129q71 43 99 99q30 59 30 172v1085z" />
<glyph unicode="k" horiz-adv-x="1112" d="M184 1561h190v-1001l449 440h222l-470 -460l280 -302q89 -94 212 -103l-29 -135q-151 -21 -246 56q-29 24 -57 55l-361 390v-501h-190v1561z" />
<glyph unicode="l" horiz-adv-x="556" d="M184 1561h190v-1219q0 -102 14 -136q28 -65 96 -83l-28 -123q-155 -20 -221 82q-51 80 -51 246v1233z" />
<glyph unicode="m" horiz-adv-x="1902" d="M1047 716q17 -85 17 -197v-519h-190v507q0 179 -31 239.5t-76.5 87t-103.5 26.5t-97.5 -10t-75.5 -28q-73 -39 -116 -104v-718h-190v1000h145l28 -95q130 115 301 115q239 0 335 -154q88 102 232 140q51 14 138.5 14t165.5 -34t125 -98q85 -119 85 -369v-519h-190v507 q0 179 -31 239.5t-76.5 87t-103.5 26.5t-98 -10.5t-76 -29.5q-75 -38 -117 -104z" />
<glyph unicode="n" horiz-adv-x="1337" d="M358 901q157 119 360 119q456 0 456 -501v-519h-190v507q0 173 -60 257q-67 96 -219 96q-163 0 -273 -80q-36 -25 -58 -58v-722h-190v1000h145z" />
<glyph unicode="o" horiz-adv-x="1290" d="M95 491q0 114 45 211t122 168q163 150 392 150q231 0 385 -143q156 -145 156 -373q0 -223 -167 -375q-162 -149 -392 -149q-234 0 -386 142q-155 144 -155 369zM285 502q0 -78 28 -144.5t77 -115.5q104 -102 264 -102q149 0 250 102q101 100 101 251q0 158 -105 263 q-104 104 -264 104q-149 0 -250 -103q-101 -102 -101 -255z" />
<glyph unicode="p" horiz-adv-x="1269" d="M602 -20q-122 0 -228 22v-469h-190v1467h145l28 -96q142 116 341 116q216 0 347 -136q129 -135 129 -354q0 -245 -164 -399q-160 -151 -408 -151zM374 173q141 -33 236 -33t163 26.5t115 75.5q96 100 96 276q0 148 -78 242q-83 100 -221 100q-158 0 -259 -78 q-32 -26 -52 -59v-550z" />
<glyph unicode="q" horiz-adv-x="1269" d="M895 80q-135 -101 -324 -101q-215 0 -347 141q-129 139 -129 359q0 243 165 393q162 147 408.5 147t416.5 -77v-1410h-190v548zM895 807q-99 52 -212.5 52t-182.5 -25t-116 -72q-99 -97 -99 -271q0 -148 78 -247q83 -105 221 -105q147 0 254 78q35 26 57 60v530z" />
<glyph unicode="r" horiz-adv-x="850" d="M758 791q-61 36 -124.5 36t-105 -32t-72.5 -81q-61 -94 -82 -220v-494h-190v1000h157l32 -183q77 141 197 187q43 16 78.5 16t52.5 -1.5t33 -4.5q32 -8 67 -24z" />
<glyph unicode="s" horiz-adv-x="988" d="M144 245q118 -81 270 -106q48 -8 90 -8t79 8t67 26q64 39 64 112q0 64 -94 107q-42 19 -96 36l-110 36q-141 48 -194.5 90t-79 87t-25.5 111.5t31.5 119t84.5 87.5q104 69 241 69q246 0 396 -107l-74 -139q-154 95 -315 95q-113 0 -159 -65q-15 -22 -15 -55t25.5 -57 t67.5 -42.5t96 -35.5l110 -34q140 -47 194 -90q105 -84 105 -200q0 -151 -127 -235q-113 -75 -287 -75q-182 0 -329 72q-49 23 -87 55z" />
<glyph unicode="t" horiz-adv-x="694" d="M165 846h-107v124l246 185h51v-155h286v-154h-286v-404q0 -170 43 -232q43 -61 168 -75l-29 -135q-300 -38 -355 237q-17 82 -17 177v432z" />
<glyph unicode="u" horiz-adv-x="1295" d="M937 97q-138 -117 -334 -117q-240 0 -343 127q-97 118 -97 374v519h190v-507q0 -174 52 -256q61 -97 211 -97q153 0 253 84q31 26 52 57v719h190v-1000h-145z" />
<glyph unicode="v" horiz-adv-x="1057" d="M40 1000h197q220 -564 238 -613l30 -86q14 -42 26 -82h12l54 167q14 42 28 76l210 538h182l-390 -1000h-197z" />
<glyph unicode="w" horiz-adv-x="1613" d="M62 1000h189l136 -433q14 -43 29 -99l57 -225h11l57 215q15 55 29 100l142 442h189l138 -433q16 -50 32 -106q37 -134 58 -218h11l29 108q30 112 64 213l144 436h174l-330 -1000h-174l-246 734l-235 -734h-174z" />
<glyph unicode="x" horiz-adv-x="1069" d="M428 509l-372 491h213l272 -362l270 362h202l-372 -495l382 -505h-213l-282 376l-280 -376h-202z" />
<glyph unicode="y" horiz-adv-x="1057" d="M79 -299q51 -19 104.5 -19t86.5 21.5t60 58.5q48 63 98 192l10 26l-398 1020h197l210 -543q17 -44 31 -89l25 -82q12 -43 22 -83h10l23 73q26 79 62 172l215 552h182l-395 -1000q-144 -366 -314 -455q-61 -32 -116.5 -32t-84 9t-60.5 34z" />
<glyph unicode="z" horiz-adv-x="954" d="M86 148l560 704h-540v148h752v-148l-560 -704h578v-148h-790v148z" />
<glyph unicode="{" horiz-adv-x="733" d="M256 642q145 -65 145 -280v-326q0 -132 93 -210q28 -24 62 -44l-75 -112q-170 65 -227 216q-20 54 -20 120v326q0 98 -43 167q-44 70 -104 70v129q62 0 104 54q43 54 43 143v330q0 152 63 252.5t174 138.5l68 -107q-71 -39 -104.5 -98t-33.5 -156v-330q0 -216 -145 -283z " />
<glyph unicode="|" horiz-adv-x="553" d="M193 1561h167v-2028h-167v2028z" />
<glyph unicode="}" horiz-adv-x="733" d="M463.016 644.039q-144.991 64.9961 -144.991 279.983v325.979q0 131.992 -92.9941 209.987q-27.998 23.999 -61.9961 43.9971l74.9951 111.993q169.989 -64.9961 226.986 -215.986q19.999 -53.9971 19.999 -119.993v-325.979q0 -97.9941 42.9971 -166.99 q43.9971 -69.9951 103.993 -69.9951v-128.992q-61.9961 0 -103.993 -53.9971q-42.9971 -53.9971 -42.9971 -142.991v-329.979q0 -151.991 -62.9961 -252.485q-62.9971 -100.493 -173.99 -138.491l-67.9951 106.993q70.9951 38.998 104.493 97.9941t33.498 155.99v329.98 q0 215.986 144.991 282.982z" />
<glyph unicode="~" horiz-adv-x="1288" d="M157 910q90 217 249 270q35 12 75 12t73.5 -13.5t62.5 -33.5t54.5 -43.5t50.5 -43.5q57 -47 89.5 -47t53 7t38.5 19q67 44 117 145l111 -56q-102 -209 -259 -260q-36 -11 -76 -11q-91 0 -189.5 90.5t-150.5 90.5q-75 0 -139 -91q-28 -40 -49 -90z" />
<glyph unicode="&#xa1;" horiz-adv-x="602" d="M389.012 -408.914h-204.987l29.998 1004.94h144.991zM377.013 985.001q33.998 -33.998 33.998 -89.9941q0 -55.9971 -33.998 -89.4941q-33.998 -33.498 -89.9941 -33.498q-55.9971 0 -89.9951 33.498q-33.9971 33.4971 -33.9971 89.4941q0 55.9961 33.9971 89.9941 q33.998 33.998 89.9951 33.998q55.9961 0 89.9941 -33.998z" />
<glyph unicode="&#xa2;" horiz-adv-x="1065" d="M1028 273q-125 -70 -310 -89v-280h-153v278q-218 18 -343 153q-127 137 -127 363q0 211 133 353q130 140 337 164v256h153v-254q170 -12 281 -72l-46 -153q-96 51 -235 66v-715q158 16 274 73zM565 1059q-130 -20 -205 -115q-75 -94 -75 -234q0 -218 163 -318 q52 -32 117 -44v711z" />
<glyph unicode="&#xa3;" horiz-adv-x="1208" d="M314 144q144 24 261 24h516v-168h-946l-17 166q223 122 223 338q0 40 -8 86h-201v154h171q-25 128 -25 228t27.5 186.5t80.5 148.5q113 130 317 130q131 0 243 -57q34 -17 55 -35l-65 -136q-112 74 -243 74q-228 0 -228 -285q0 -93 31 -254h358v-154h-330q3 -29 3 -68.5 t-11 -90.5t-36 -101q-55 -104 -176 -186z" />
<glyph unicode="&#xa4;" horiz-adv-x="1199" d="M592 248q-129 0 -228 64l-195 -219l-110 110l215 191q-75 100 -75 234q0 135 82 238l-222 198l110 110l201 -226q105 72 236 72q127 0 228 -65l196 219l110 -110l-217 -192q76 -101 76 -235t-81 -236l222 -198l-110 -110l-201 226q-107 -71 -237 -71zM604 389q51 0 92 19 t70 51q62 67 62 169q0 108 -65 178q-67 73 -171 73q-96 0 -160 -72q-62 -69 -62 -170q0 -108 65 -177q67 -71 169 -71z" />
<glyph unicode="&#xa5;" horiz-adv-x="1291" d="M185 429h374v146h-374v154h293l-441 687h203l413 -647l410 647h191l-434 -687h287v-154h-363v-146h363v-154h-363v-275h-185v275h-374v154z" />
<glyph unicode="&#xa6;" horiz-adv-x="553" d="M193 1561h167v-820h-167v820zM360 353v-820h-167v820h167z" />
<glyph unicode="&#xa7;" horiz-adv-x="1114" d="M853 457q60 -64 60 -146.5t-30.5 -141t-81.5 -100.5q-108 -89 -253 -89q-187 0 -352 136l93 148q135 -118 277 -118q100 0 138 70q13 23 13 57.5t-25 61.5t-65.5 46.5t-92.5 35.5l-107 33q-136 43 -188 84q-102 81 -102 196q0 69 34 130t89 99q-59 63 -59 145.5 t30.5 141.5t81.5 101q108 89 253 89q187 0 352 -136l-93 -148q-135 118 -277 118q-100 0 -138 -70q-13 -23 -13 -57.5t25 -61.5t65.5 -46.5t92.5 -35.5l107 -33q136 -43 188 -84q102 -81 102 -196q0 -70 -34 -130.5t-90 -98.5zM383 877q-50 -41 -50 -117q0 -83 135 -132 q40 -14 84 -28l90 -28q46 -14 89 -33q50 41 50 117q0 84 -135 131l-174 57q-47 14 -89 33z" />
<glyph unicode="&#xa8;" horiz-adv-x="598" d="M495 1222q-45 0 -75.5 30.5t-30.5 75.5t30.5 75.5t75.5 30.5t75.5 -30.5t30.5 -75.5t-30.5 -75.5t-75.5 -30.5zM103 1222q-45 0 -75.5 30.5t-30.5 75.5t30.5 75.5t75.5 30.5t75.5 -30.5t30.5 -75.5t-30.5 -75.5t-75.5 -30.5z" />
<glyph unicode="&#xa9;" horiz-adv-x="1584" d="M137 586q0 135 51.5 251t141.5 199q191 176 470 176q270 0 456 -169q88 -80 139.5 -191t51.5 -246t-51.5 -251t-141.5 -199q-191 -176 -470 -176q-270 0 -456 169q-191 174 -191 437zM283 608q0 -106 40.5 -198.5t110.5 -161.5q152 -147 366 -147q209 0 354 137 q147 140 147 345q0 214 -151 361q-152 148 -366 148q-209 0 -354 -138q-147 -139 -147 -346zM818 401q99 0 191 45l27 -104q-56 -42 -166 -60q-34 -5 -87.5 -5t-116 21.5t-106.5 61.5q-93 86 -93 235q0 144 101 234q100 88 250 88q109 0 198 -54l-51 -110q-77 43 -165.5 43 t-137.5 -49t-49 -143q0 -203 205 -203z" />
<glyph unicode="&#xaa;" horiz-adv-x="933" d="M620 909q-134 -113 -276 -113q-111 0 -187 58q-82 64 -82 154t43 145t114 89q135 66 359 70q-6 75 -51 102q-40 23 -135 23t-192 -39l-40 116q112 52 250 52q233 0 308 -145q26 -50 26 -119v-235q0 -70 12 -96q20 -43 72 -58l-24 -103q-142 -18 -197 99zM356 926 q140 0 236 107v160q-174 -9 -236 -32.5t-89.5 -54t-27.5 -80.5t32.5 -75t84.5 -25z" />
<glyph unicode="&#xab;" horiz-adv-x="1204" d="M609 531l425 413l96 -91l-301 -337l296 -318l-93 -100l-423 373v60zM113 531l425 413l96 -91l-301 -337l296 -318l-93 -100l-423 373v60z" />
<glyph unicode="&#xac;" horiz-adv-x="1335" d="M207 723h921l-1 -572h-185v404h-735v168z" />
<glyph unicode="&#xad;" horiz-adv-x="1136" d="M207 669h722v-154h-722v154z" />
<glyph unicode="&#xae;" horiz-adv-x="1299" d="M646 715q-115 0 -214 37.5t-174 105.5q-161 146 -161 365q0 230 163 381q160 149 396 149q227 0 384 -143q162 -146 162 -366q0 -231 -163 -381q-161 -148 -393 -148zM654 821q88 0 164 30.5t133 84.5q123 117 123 287q0 177 -126 301t-305 124q-173 0 -295 -116 q-123 -117 -123 -288q0 -177 127 -300q126 -123 302 -123zM694 1119q-28 -2 -54 -2h-120v-146h-101v534h232q188 0 247 -97q22 -36 22 -90q0 -128 -124 -177l90 -170h-113zM649 1213q121 0 153 47q14 19 14 52q0 84 -112 95q-32 3 -65 3h-119v-197h129z" />
<glyph unicode="&#xaf;" horiz-adv-x="598" d="M-23 1400h644v-140h-644v140z" />
<glyph unicode="&#xb0;" horiz-adv-x="738" d="M368 856q-128 0 -212 80q-87 83 -87 207t87 209q86 84 214 84q127 0 212 -82q87 -82 87 -207t-87 -209q-87 -82 -214 -82zM488.5 1022.5q43.5 45.5 43.5 120.5q0 118 -96 159q-31 13 -68 13q-75 0 -118.5 -46.5t-43.5 -103t11.5 -87.5t32.5 -54q46 -47 120.5 -47 t118 45.5z" />
<glyph unicode="&#xb1;" horiz-adv-x="1336" d="M575 796h-368v168h368v386h185v-386h369v-168h-369v-386h-185v386zM207 228h922v-168h-922v168z" />
<glyph unicode="&#xb2;" horiz-adv-x="962" d="M167 1706q151 73 299 73q234 0 313 -147q27 -51 27 -111.5t-16 -106t-44 -88.5q-50 -73 -158 -163l-173 -145h404v-152h-629v147l216 183q113 97 152 148q73 94 73 160q0 65 -57 100q-50 31 -148.5 31t-215.5 -61z" />
<glyph unicode="&#xb3;" horiz-adv-x="939" d="M581 1537q0 96 -142.5 96t-230.5 -46l-44 129q126 63 287 63q126 0 211 -59q94 -64 94 -175q0 -64 -37.5 -118t-111.5 -80v-6q87 -22 133 -80t46 -134t-31.5 -127t-82.5 -85q-100 -67 -252 -67q-182 0 -295 69l44 145q118 -66 269 -66q119 0 158 64q13 23 13 63.5 t-24.5 69.5t-68.5 43q-81 25 -248 6v156l50 -2q20 -1 41 -1h33q126 0 173 79q16 26 16 63z" />
<glyph unicode="&#xb4;" horiz-adv-x="598" d="M86 1235l333 286l116 -116l-356 -260z" />
<glyph unicode="&#xb6;" horiz-adv-x="1226" d="M567 704q-190 0 -310 88q-130 95 -130 268q0 169 141 268q124 87 320 87h474v-1519h-147v1389h-197v-1389h-151v808z" />
<glyph unicode="&#xb7;" horiz-adv-x="562" d="M393.5 438.5q-42.5 -42.5 -112.5 -42.5t-112.5 42.5t-42.5 112.5t42.5 112t112.5 42t112.5 -42t42.5 -112t-42.5 -112.5z" />
<glyph unicode="&#xb8;" horiz-adv-x="598" d="M334 -15q-8 -18 -14 -33l-12 -29q-5 -14 -7 -23q64 -16 100.5 -54t36.5 -83.5t-20.5 -80t-51.5 -66.5q-62 -61 -146 -102l-74 75l40 31q75 60 75 101q0 45 -117 70q13 48 30 91l30 68q12 27 23 47z" />
<glyph unicode="&#xb9;" horiz-adv-x="710" d="M326 1593l-213 -121l-52 141l277 149h165v-896h-177v727z" />
<glyph unicode="&#xba;" horiz-adv-x="938" d="M462 794q-171 0 -280 106q-113 108 -113 274t119 280q119 112 288 112q170 0 280 -106q113 -109 113 -277q0 -166 -119 -278q-119 -111 -288 -111zM474 930q53 0 94.5 19t71.5 52q63 69 63 173q0 110 -67 182q-67 74 -174 74q-100 0 -164 -73q-63 -71 -63 -174 q0 -109 67 -181q66 -72 172 -72z" />
<glyph unicode="&#xbb;" horiz-adv-x="1204" d="M617.037 511.032l-424.974 -412.975l-95.9941 90.9941l300.981 336.979l-295.982 317.98l92.9941 99.9941l422.975 -372.978v-59.9961zM1113.01 511.032l-424.974 -412.975l-95.9941 90.9941l300.981 336.979l-295.982 317.98l92.9951 99.9941l422.974 -372.978v-59.9961 z" />
<glyph unicode="&#xbc;" horiz-adv-x="1871" d="M1645 1761l121 -100l-1617 -1928l-121 100zM1418 629h177v-541h177v-151h-177v-203h-177v203h-439l-33 104zM1418 88v336l-262 -336h262zM326 1593l-213 -121l-52 141l277 149h165v-896h-177v727z" />
<glyph unicode="&#xbd;" horiz-adv-x="1931" d="M1645 1761l121 -100l-1617 -1928l-121 100zM326 1593l-213 -121l-52 141l277 149h165v-896h-177v727zM1136 574q151 73 299 73q234 0 313 -147q27 -51 27 -111.5t-16 -106t-45 -88.5q-49 -73 -157 -163l-173 -145h404v-152h-629v147l216 183q113 97 152 148q73 94 73 160 q0 65 -57 100q-50 31 -148.5 31t-215.5 -61z" />
<glyph unicode="&#xbe;" horiz-adv-x="1981" d="M1755 1761l121 -100l-1617 -1928l-121 100zM1528 629h177v-541h177v-151h-177v-203h-177v203h-439l-33 104zM1528 88v336l-262 -336h262zM581 1537q0 96 -142.5 96t-230.5 -46l-44 129q126 63 287 63q126 0 211 -59q94 -64 94 -175q0 -64 -37.5 -118t-111.5 -80v-6 q87 -22 133 -80t46 -134t-31.5 -127t-82.5 -85q-100 -67 -252 -67q-182 0 -295 69l44 145q118 -66 269 -66q119 0 158 64q13 23 13 63.5t-24.5 69.5t-68.5 43q-81 25 -248 6v156l50 -2q20 -1 41 -1h33q126 0 173 79q16 26 16 63z" />
<glyph unicode="&#xbf;" horiz-adv-x="1035" d="M945.005 -334.918q-209.987 -93.9941 -442.973 -93.9941q-287.982 0 -394.976 143.991q-38.998 52.9961 -38.998 123.992t23.498 122.492q23.499 51.4971 61.4971 94.4941q37.9971 42.998 85.9941 80.9951l93.9941 73.9961q122.993 95.9941 159.99 150.99 q72.9961 110.993 45.9971 234.986l161.99 31.998q38.998 -218.987 -102.993 -377.978q-67.9961 -75.9951 -143.491 -135.491q-75.4961 -59.4971 -111.493 -94.4941q-78.9951 -76.9961 -78.9951 -144.991q0 -138.992 255.984 -138.992q118.992 0 298.981 51.9971 q48.9971 13.999 81.9951 27.998zM676.021 986.001q33.998 -33.998 33.998 -89.9941q0 -55.9971 -33.998 -89.4941q-33.998 -33.498 -89.9941 -33.498q-55.9971 0 -89.9951 33.498q-33.998 33.4971 -33.998 89.4941q0 55.9961 33.998 89.9941t89.9951 33.998 q55.9961 0 89.9941 -33.998z" />
<glyph unicode="&#xc0;" horiz-adv-x="1430" d="M687 1416h105l613 -1416h-202l-134 310h-709l-145 -310h-190zM997 478l-128 297q-24 56 -47 116l-40 113q-38 110 -45 150h-12q-8 -40 -36 -114l-51 -130q-23 -56 -50 -114l-149 -318h558zM356 1723l84 139l485 -211l-66 -109z" />
<glyph unicode="&#xc1;" horiz-adv-x="1430" d="M687 1416h105l613 -1416h-202l-134 310h-709l-145 -310h-190zM997 478l-128 297q-24 56 -47 116l-40 113q-38 110 -45 150h-12q-8 -40 -36 -114l-51 -130q-23 -56 -50 -114l-149 -318h558zM560 1646l485 230l89 -137l-502 -201z" />
<glyph unicode="&#xc2;" horiz-adv-x="1430" d="M687 1416h105l613 -1416h-202l-134 310h-709l-145 -310h-190zM997 478l-128 297q-24 56 -47 116l-40 113q-38 110 -45 150h-12q-8 -40 -36 -114l-51 -130q-23 -56 -50 -114l-149 -318h558zM343 1622l390 264l398 -261l-103 -89l-301 166l-293 -167z" />
<glyph unicode="&#xc3;" horiz-adv-x="1430" d="M687 1416h105l613 -1416h-202l-134 310h-709l-145 -310h-190zM997 478l-128 297q-24 56 -47 116l-40 113q-38 110 -45 150h-12q-8 -40 -36 -114l-51 -130q-23 -56 -50 -114l-149 -318h558zM893 1720q73 0 129 88l98 -62q-65 -133 -194 -166q-30 -7 -68 -7t-78 13.5 t-77 29.5l-69 31q-31 14 -57 14q-47 0 -96 -44q-22 -19 -39 -44l-105 71q54 89 155 138q51 26 106 26t95.5 -14t77.5 -30l68 -30q31 -14 54 -14z" />
<glyph unicode="&#xc4;" horiz-adv-x="1430" d="M687 1416h105l613 -1416h-202l-134 310h-709l-145 -310h-190zM997 478l-128 297q-24 56 -47 116l-40 113q-38 110 -45 150h-12q-8 -40 -36 -114l-51 -130q-23 -56 -50 -114l-149 -318h558zM978 1572q-45 0 -75.5 30.5t-30.5 75.5t30.5 75.5t75.5 30.5t75.5 -30.5 t30.5 -75.5t-30.5 -75.5t-75.5 -30.5zM486 1572q-45 0 -75.5 30.5t-30.5 75.5t30.5 75.5t75.5 30.5t75.5 -30.5t30.5 -75.5t-30.5 -75.5t-75.5 -30.5z" />
<glyph unicode="&#xc5;" horiz-adv-x="1430" d="M687 1416h105l613 -1416h-202l-134 310h-709l-145 -310h-190zM997 478l-128 297q-24 56 -47 116l-40 113q-38 110 -45 150h-12q-8 -40 -36 -114l-51 -130q-23 -56 -50 -114l-149 -318h558zM828.5 1528q-43.5 -14 -92 -14t-89.5 12.5t-71 37.5q-63 51 -63 147q0 93 71 153 q68 56 167 56q156 0 208 -114q17 -37 17 -85.5t-19.5 -86.5t-52 -65t-76 -41zM665 1642.5q34 -25.5 82.5 -25.5t79.5 24.5t31 73t-34.5 75.5t-83 27t-79 -26t-30.5 -74.5t34 -74z" />
<glyph unicode="&#xc6;" horiz-adv-x="2118" d="M952 1416h1037v-168h-852v-382h757v-168h-757v-530h872v-168h-1057v277h-620l-197 -277h-200zM952 445v704l-501 -704h501z" />
<glyph unicode="&#xc7;" horiz-adv-x="1492" d="M1329 1122q-166 148 -427 148q-237 0 -402 -156q-167 -157 -167 -391q0 -242 172 -410q171 -167 415 -167q177 0 353 90q52 26 90 57l72 -138q-147 -126 -379 -163q-75 -12 -118 -12h-50q-7 0 -14 1l-16 -38q-11 -25 -15 -43q64 -16 100.5 -54t36.5 -83.5t-20.5 -80 t-51.5 -66.5q-62 -61 -146 -102l-74 75l40 31q75 60 75 101q0 45 -117 70q10 43 27 86l29 67q12 26 23 47q-271 43 -447 233q-181 196 -181 469q0 323 228 535q143 133 345 183q101 25 229 25t256 -44t227 -122z" />
<glyph unicode="&#xc8;" horiz-adv-x="1370" d="M184 1416h1057v-168h-872v-382h777v-168h-777v-530h892v-168h-1077v1416zM416 1723l84 139l485 -211l-66 -109z" />
<glyph unicode="&#xc9;" horiz-adv-x="1370" d="M184 1416h1057v-168h-872v-382h777v-168h-777v-530h892v-168h-1077v1416zM468 1646l485 230l89 -137l-502 -201z" />
<glyph unicode="&#xca;" horiz-adv-x="1370" d="M184 1416h1057v-168h-872v-382h777v-168h-777v-530h892v-168h-1077v1416zM331 1622l390 264l398 -261l-103 -89l-301 166l-293 -167z" />
<glyph unicode="&#xcb;" horiz-adv-x="1370" d="M184 1416h1057v-168h-872v-382h777v-168h-777v-530h892v-168h-1077v1416zM931 1572q-45 0 -75.5 30.5t-30.5 75.5t30.5 75.5t75.5 30.5t75.5 -30.5t30.5 -75.5t-30.5 -75.5t-75.5 -30.5zM439 1572q-45 0 -75.5 30.5t-30.5 75.5t30.5 75.5t75.5 30.5t75.5 -30.5 t30.5 -75.5t-30.5 -75.5t-75.5 -30.5z" />
<glyph unicode="&#xcc;" horiz-adv-x="553" d="M184 1416h185v-1416h-185v1416zM-62 1723l84 139l485 -211l-66 -109z" />
<glyph unicode="&#xcd;" horiz-adv-x="553" d="M184 1416h185v-1416h-185v1416zM31 1646l485 230l89 -137l-502 -201z" />
<glyph unicode="&#xce;" horiz-adv-x="553" d="M184 1416h185v-1416h-185v1416zM-116 1622l390 264l398 -261l-103 -89l-301 166l-293 -167z" />
<glyph unicode="&#xcf;" horiz-adv-x="553" d="M184 1416h185v-1416h-185v1416zM524 1572q-45 0 -75.5 30.5t-30.5 75.5t30.5 75.5t75.5 30.5t75.5 -30.5t30.5 -75.5t-30.5 -75.5t-75.5 -30.5zM32 1572q-45 0 -75.5 30.5t-30.5 75.5t30.5 75.5t75.5 30.5t75.5 -30.5t30.5 -75.5t-30.5 -75.5t-75.5 -30.5z" />
<glyph unicode="&#xd0;" horiz-adv-x="1631" d="M285 706h-258v154h258v556h581q325 0 524 -182q204 -188 204 -503q0 -333 -210 -533q-207 -198 -546 -198h-553v706zM863 168q249 0 393 150q142 148 142 401q0 244 -157 388q-153 141 -404 141h-367v-388h499v-154h-499v-538h393z" />
<glyph unicode="&#xd1;" horiz-adv-x="1607" d="M184 1416h162l912 -1118v1118h165v-1416h-155l-919 1126v-1126h-165v1416zM957 1720q73 0 129 88l98 -62q-65 -133 -194 -166q-30 -7 -68 -7t-78 13.5t-77 29.5l-69 31q-31 14 -57 14q-47 0 -96 -44q-22 -19 -39 -44l-105 71q54 89 155 138q51 26 106 26t95.5 -14 t77.5 -30l68 -30q31 -14 54 -14z" />
<glyph unicode="&#xd2;" horiz-adv-x="1822" d="M197.5 405q-60.5 131 -60.5 264t27.5 230.5t78.5 180t122 148.5t158 112q182 96 397 96q206 0 384 -92q173 -90 276 -250q105 -167 105 -371q0 -323 -228 -535q-143 -133 -345 -183q-101 -25 -234 -25t-272 52.5t-243.5 147t-165 225.5zM377.5 941q-44.5 -100 -44.5 -220 t46 -225t126 -183q171 -167 415 -167q237 0 402 156q167 158 167 391q0 158 -80 293q-75 128 -211 206q-134 78 -274 78t-243.5 -41.5t-181 -114.5t-122 -173zM651 1723l84 139l485 -211l-66 -109z" />
<glyph unicode="&#xd3;" horiz-adv-x="1822" d="M197.5 405q-60.5 131 -60.5 264t27.5 230.5t78.5 180t122 148.5t158 112q182 96 397 96q206 0 384 -92q173 -90 276 -250q105 -167 105 -371q0 -323 -228 -535q-143 -133 -345 -183q-101 -25 -234 -25t-272 52.5t-243.5 147t-165 225.5zM377.5 941q-44.5 -100 -44.5 -220 t46 -225t126 -183q171 -167 415 -167q237 0 402 156q167 158 167 391q0 158 -80 293q-75 128 -211 206q-134 78 -274 78t-243.5 -41.5t-181 -114.5t-122 -173zM644 1646l485 230l89 -137l-502 -201z" />
<glyph unicode="&#xd4;" horiz-adv-x="1822" d="M197.5 405q-60.5 131 -60.5 264t27.5 230.5t78.5 180t122 148.5t158 112q182 96 397 96q206 0 384 -92q173 -90 276 -250q105 -167 105 -371q0 -323 -228 -535q-143 -133 -345 -183q-101 -25 -234 -25t-272 52.5t-243.5 147t-165 225.5zM377.5 941q-44.5 -100 -44.5 -220 t46 -225t126 -183q171 -167 415 -167q237 0 402 156q167 158 167 391q0 158 -80 293q-75 128 -211 206q-134 78 -274 78t-243.5 -41.5t-181 -114.5t-122 -173zM517 1622l390 264l398 -261l-103 -89l-301 166l-293 -167z" />
<glyph unicode="&#xd5;" horiz-adv-x="1822" d="M197.5 405q-60.5 131 -60.5 264t27.5 230.5t78.5 180t122 148.5t158 112q182 96 397 96q206 0 384 -92q173 -90 276 -250q105 -167 105 -371q0 -323 -228 -535q-143 -133 -345 -183q-101 -25 -234 -25t-272 52.5t-243.5 147t-165 225.5zM377.5 941q-44.5 -100 -44.5 -220 t46 -225t126 -183q171 -167 415 -167q237 0 402 156q167 158 167 391q0 158 -80 293q-75 128 -211 206q-134 78 -274 78t-243.5 -41.5t-181 -114.5t-122 -173zM1064 1720q73 0 129 88l98 -62q-65 -133 -194 -166q-30 -7 -68 -7t-78 13.5t-77 29.5l-69 31q-31 14 -57 14 q-47 0 -96 -44q-22 -19 -39 -44l-105 71q54 89 155 138q51 26 106 26t95.5 -14t77.5 -30l68 -30q31 -14 54 -14z" />
<glyph unicode="&#xd6;" horiz-adv-x="1822" d="M197.5 405q-60.5 131 -60.5 264t27.5 230.5t78.5 180t122 148.5t158 112q182 96 397 96q206 0 384 -92q173 -90 276 -250q105 -167 105 -371q0 -323 -228 -535q-143 -133 -345 -183q-101 -25 -234 -25t-272 52.5t-243.5 147t-165 225.5zM377.5 941q-44.5 -100 -44.5 -220 t46 -225t126 -183q171 -167 415 -167q237 0 402 156q167 158 167 391q0 158 -80 293q-75 128 -211 206q-134 78 -274 78t-243.5 -41.5t-181 -114.5t-122 -173zM1157 1572q-45 0 -75.5 30.5t-30.5 75.5t30.5 75.5t75.5 30.5t75.5 -30.5t30.5 -75.5t-30.5 -75.5t-75.5 -30.5z M665 1572q-45 0 -75.5 30.5t-30.5 75.5t30.5 75.5t75.5 30.5t75.5 -30.5t30.5 -75.5t-30.5 -75.5t-75.5 -30.5z" />
<glyph unicode="&#xd7;" horiz-adv-x="1336" d="M543 523l-307 308l131 130l307 -307l307 307l118 -118l-307 -307l307 -307l-130 -131l-308 307l-307 -307l-118 118z" />
<glyph unicode="&#xd8;" horiz-adv-x="1822" d="M902 -20q-203 0 -371 85l-139 -189l-134 94l135 183q-118 96 -187 233.5t-69 306.5q0 323 228 535q143 133 345 183q101 25 210 25q193 0 361 -81l134 181l134 -94l-128 -174q264 -211 264 -545q0 -323 -228 -535q-143 -133 -345 -183q-101 -25 -210 -25zM1171 1206 q-126 64 -256.5 64t-234 -41.5t-180.5 -114.5q-167 -157 -167 -391q0 -245 175 -414zM641 214q130 -68 263.5 -68t237 41.5t180.5 114.5q167 158 167 391q0 126 -49 234t-134 186z" />
<glyph unicode="&#xd9;" horiz-adv-x="1592" d="M153 1416h185v-733q0 -386 257 -499q88 -38 208 -38t204.5 35t139.5 101q107 127 107 371v763h185v-733q0 -509 -367 -655q-122 -48 -282 -48t-278.5 46.5t-197.5 133.5q-161 176 -161 493v763zM400 1723l84 139l485 -211l-66 -109z" />
<glyph unicode="&#xda;" horiz-adv-x="1592" d="M153 1416h185v-733q0 -386 257 -499q88 -38 208 -38t204.5 35t139.5 101q107 127 107 371v763h185v-733q0 -509 -367 -655q-122 -48 -282 -48t-278.5 46.5t-197.5 133.5q-161 176 -161 493v763zM639 1646l485 230l89 -137l-502 -201z" />
<glyph unicode="&#xdb;" horiz-adv-x="1592" d="M153 1416h185v-733q0 -386 257 -499q88 -38 208 -38t204.5 35t139.5 101q107 127 107 371v763h185v-733q0 -509 -367 -655q-122 -48 -282 -48t-278.5 46.5t-197.5 133.5q-161 176 -161 493v763zM402 1622l390 264l398 -261l-103 -89l-301 166l-293 -167z" />
<glyph unicode="&#xdc;" horiz-adv-x="1592" d="M153 1416h185v-733q0 -386 257 -499q88 -38 208 -38t204.5 35t139.5 101q107 127 107 371v763h185v-733q0 -509 -367 -655q-122 -48 -282 -48t-278.5 46.5t-197.5 133.5q-161 176 -161 493v763zM1042 1572q-45 0 -75.5 30.5t-30.5 75.5t30.5 75.5t75.5 30.5t75.5 -30.5 t30.5 -75.5t-30.5 -75.5t-75.5 -30.5zM550 1572q-45 0 -75.5 30.5t-30.5 75.5t30.5 75.5t75.5 30.5t75.5 -30.5t30.5 -75.5t-30.5 -75.5t-75.5 -30.5z" />
<glyph unicode="&#xdd;" horiz-adv-x="1291" d="M559 604l-522 812h203l413 -647l410 647h191l-510 -809v-607h-185v604zM378 1646l485 230l89 -137l-502 -201z" />
<glyph unicode="&#xde;" horiz-adv-x="1440" d="M184 1416h185v-195h326q449 0 588 -253q50 -91 50 -223q0 -250 -201 -385q-180 -120 -465 -120h-298v-240h-185v1416zM692 408q309 0 409 173q36 62 36 152q0 166 -145 249q-124 71 -326 71h-297v-645h323z" />
<glyph unicode="&#xdf;" horiz-adv-x="1212" d="M812 1355q-94 49 -185 49t-136.5 -28t-70.5 -76q-45 -84 -45 -250v-50h718v-148l-347 -429q156 -30 257 -123q110 -103 110 -238q0 -221 -194 -374q-170 -133 -408 -173l-57 143q216 55 324 131q135 95 135 235q0 130 -109 194q-95 57 -270 57v148l347 429h-506v-852 h-191v1038q0 374 243 484q84 38 172 38q145 0 258 -54z" />
<glyph unicode="&#xe0;" horiz-adv-x="1201" d="M837 128q-183 -148 -385 -148q-141 0 -237 74q-103 80 -103 209q0 266 354 355q143 36 343 40q-6 163 -159 192q-50 10 -94 10t-78 -4t-70 -11q-79 -15 -134 -37l-53 142q140 70 338 70q309 0 407 -197q33 -68 33 -162v-319q0 -102 15 -136q27 -65 95 -83l-28 -123 q-187 -22 -244 128zM343 383.5q-41 -42.5 -41 -91.5t14 -74.5t37 -42.5q47 -35 110 -35t113.5 13.5t93.5 35.5q84 42 139 104v216q-238 -12 -331.5 -47.5t-134.5 -78zM280 1408l114 117l333 -286l-91 -91z" />
<glyph unicode="&#xe1;" horiz-adv-x="1201" d="M837 128q-183 -148 -385 -148q-141 0 -237 74q-103 80 -103 209q0 266 354 355q143 36 343 40q-6 163 -159 192q-50 10 -94 10t-78 -4t-70 -11q-79 -15 -134 -37l-53 142q140 70 338 70q309 0 407 -197q33 -68 33 -162v-319q0 -102 15 -136q27 -65 95 -83l-28 -123 q-187 -22 -244 128zM343 383.5q-41 -42.5 -41 -91.5t14 -74.5t37 -42.5q47 -35 110 -35t113.5 13.5t93.5 35.5q84 42 139 104v216q-238 -12 -331.5 -47.5t-134.5 -78zM451 1235l333 286l116 -116l-356 -260z" />
<glyph unicode="&#xe2;" horiz-adv-x="1201" d="M837 128q-183 -148 -385 -148q-141 0 -237 74q-103 80 -103 209q0 266 354 355q143 36 343 40q-6 163 -159 192q-50 10 -94 10t-78 -4t-70 -11q-79 -15 -134 -37l-53 142q140 70 338 70q309 0 407 -197q33 -68 33 -162v-319q0 -102 15 -136q27 -65 95 -83l-28 -123 q-187 -22 -244 128zM343 383.5q-41 -42.5 -41 -91.5t14 -74.5t37 -42.5q47 -35 110 -35t113.5 13.5t93.5 35.5q84 42 139 104v216q-238 -12 -331.5 -47.5t-134.5 -78zM293 1232l310 294l308 -292l-93 -89l-221 185l-213 -185z" />
<glyph unicode="&#xe3;" horiz-adv-x="1201" d="M837 128q-183 -148 -385 -148q-141 0 -237 74q-103 80 -103 209q0 266 354 355q143 36 343 40q-6 163 -159 192q-50 10 -94 10t-78 -4t-70 -11q-79 -15 -134 -37l-53 142q140 70 338 70q309 0 407 -197q33 -68 33 -162v-319q0 -102 15 -136q27 -65 95 -83l-28 -123 q-187 -22 -244 128zM343 383.5q-41 -42.5 -41 -91.5t14 -74.5t37 -42.5q47 -35 110 -35t113.5 13.5t93.5 35.5q84 42 139 104v216q-238 -12 -331.5 -47.5t-134.5 -78zM470 1310q-74 0 -137 -111l-97 71q62 140 195 176q30 8 67.5 8t72 -17.5t63.5 -38.5l54 -38 q25 -17 48 -17q73 0 137 111l96 -59q-66 -150 -194 -187q-30 -9 -68 -9t-72 17.5t-63 37.5l-55 38q-25 18 -47 18z" />
<glyph unicode="&#xe4;" horiz-adv-x="1201" d="M837 128q-183 -148 -385 -148q-141 0 -237 74q-103 80 -103 209q0 266 354 355q143 36 343 40q-6 163 -159 192q-50 10 -94 10t-78 -4t-70 -11q-79 -15 -134 -37l-53 142q140 70 338 70q309 0 407 -197q33 -68 33 -162v-319q0 -102 15 -136q27 -65 95 -83l-28 -123 q-187 -22 -244 128zM343 383.5q-41 -42.5 -41 -91.5t14 -74.5t37 -42.5q47 -35 110 -35t113.5 13.5t93.5 35.5q84 42 139 104v216q-238 -12 -331.5 -47.5t-134.5 -78zM798 1222q-45 0 -75.5 30.5t-30.5 75.5t30.5 75.5t75.5 30.5t75.5 -30.5t30.5 -75.5t-30.5 -75.5 t-75.5 -30.5zM406 1222q-45 0 -75.5 30.5t-30.5 75.5t30.5 75.5t75.5 30.5t75.5 -30.5t30.5 -75.5t-30.5 -75.5t-75.5 -30.5z" />
<glyph unicode="&#xe5;" horiz-adv-x="1201" d="M837 128q-183 -148 -385 -148q-141 0 -237 74q-103 80 -103 209q0 266 354 355q143 36 343 40q-6 163 -159 192q-50 10 -94 10t-78 -4t-70 -11q-79 -15 -134 -37l-53 142q140 70 338 70q309 0 407 -197q33 -68 33 -162v-319q0 -102 15 -136q27 -65 95 -83l-28 -123 q-187 -22 -244 128zM343 383.5q-41 -42.5 -41 -91.5t14 -74.5t37 -42.5q47 -35 110 -35t113.5 13.5t93.5 35.5q84 42 139 104v216q-238 -12 -331.5 -47.5t-134.5 -78zM684 1158.5q-43 -15.5 -90.5 -15.5t-88 13.5t-69.5 39.5q-61 55 -61 150q0 91 70 154q69 61 164 61 q153 0 204 -119q17 -38 17 -86t-19.5 -86.5t-51.5 -67t-75 -44zM523.5 1273q32.5 -29 81.5 -29t79 28.5t30 77.5t-33 79.5t-82 30.5t-78.5 -30t-29.5 -79t32.5 -78z" />
<glyph unicode="&#xe6;" horiz-adv-x="1809" d="M876 170q-218 -190 -448 -190q-133 0 -226 74q-101 82 -101 209q0 266 353 355q144 36 344 40q-6 163 -160 192q-49 10 -93 10t-78 -4t-70 -11q-79 -15 -134 -37l-53 142q140 70 338 70q279 0 387 -161q146 161 375 161q181 0 288 -108q115 -114 115 -321q0 -65 -21 -191 h-695q22 -121 98 -190.5t215 -69.5q186 0 341 68l32 -143q-103 -60 -293 -79q-54 -6 -99 -6q-296 0 -415 190zM1531 547l5 54q0 183 -137 243q-46 20 -110 20t-117.5 -25t-92.5 -68q-80 -88 -90 -224h542zM332 383.5q-41 -42.5 -41 -91.5t13.5 -74.5t35.5 -42.5 q45 -35 106.5 -35t119 16.5t106.5 41.5q93 50 145 118q-19 80 -19 182v11q-238 -12 -331.5 -47.5t-134.5 -78z" />
<glyph unicode="&#xe7;" horiz-adv-x="990" d="M921 214l35 -141q-116 -87 -340 -92q-11 -28 -15 -39q-11 -25 -15 -42q64 -16 100.5 -54t36.5 -83.5t-20.5 -80t-52.5 -66.5q-61 -61 -145 -102l-74 75l41 31q74 60 74 101q0 45 -117 70q23 95 77 194q-196 24 -304 161q-107 135 -107 352q0 222 145 372q147 150 367 150 q198 0 322 -91l-66 -149q-113 84 -274 84q-138 0 -223 -106q-81 -100 -81 -248q0 -159 85 -262q89 -108 245 -108t306 74z" />
<glyph unicode="&#xe8;" horiz-adv-x="1106" d="M979.5 778.5q30.5 -80.5 30.5 -169.5t-20 -209h-696q22 -121 98 -190.5t215 -69.5q186 0 341 68l32 -143q-103 -60 -294 -79q-53 -6 -138 -6t-178 34t-154 100q-121 131 -121 384q0 222 145 372q147 150 367 150q181 0 289 -108q53 -53 83.5 -133.5zM829 547l4 54 q0 183 -137 243q-46 20 -110 20t-117.5 -25t-92.5 -68q-80 -88 -90 -224h543zM283 1408l114 117l333 -286l-91 -91z" />
<glyph unicode="&#xe9;" horiz-adv-x="1106" d="M979.5 778.5q30.5 -80.5 30.5 -169.5t-20 -209h-696q22 -121 98 -190.5t215 -69.5q186 0 341 68l32 -143q-103 -60 -294 -79q-53 -6 -138 -6t-178 34t-154 100q-121 131 -121 384q0 222 145 372q147 150 367 150q181 0 289 -108q53 -53 83.5 -133.5zM829 547l4 54 q0 183 -137 243q-46 20 -110 20t-117.5 -25t-92.5 -68q-80 -88 -90 -224h543zM421 1235l333 286l116 -116l-356 -260z" />
<glyph unicode="&#xea;" horiz-adv-x="1106" d="M979.5 778.5q30.5 -80.5 30.5 -169.5t-20 -209h-696q22 -121 98 -190.5t215 -69.5q186 0 341 68l32 -143q-103 -60 -294 -79q-53 -6 -138 -6t-178 34t-154 100q-121 131 -121 384q0 222 145 372q147 150 367 150q181 0 289 -108q53 -53 83.5 -133.5zM829 547l4 54 q0 183 -137 243q-46 20 -110 20t-117.5 -25t-92.5 -68q-80 -88 -90 -224h543zM295 1232l310 294l308 -292l-93 -89l-221 185l-213 -185z" />
<glyph unicode="&#xeb;" horiz-adv-x="1106" d="M979.5 778.5q30.5 -80.5 30.5 -169.5t-20 -209h-696q22 -121 98 -190.5t215 -69.5q186 0 341 68l32 -143q-103 -60 -294 -79q-53 -6 -138 -6t-178 34t-154 100q-121 131 -121 384q0 222 145 372q147 150 367 150q181 0 289 -108q53 -53 83.5 -133.5zM829 547l4 54 q0 183 -137 243q-46 20 -110 20t-117.5 -25t-92.5 -68q-80 -88 -90 -224h543zM749 1222q-45 0 -75.5 30.5t-30.5 75.5t30.5 75.5t75.5 30.5t75.5 -30.5t30.5 -75.5t-30.5 -75.5t-75.5 -30.5zM357 1222q-45 0 -75.5 30.5t-30.5 75.5t30.5 75.5t75.5 30.5t75.5 -30.5 t30.5 -75.5t-30.5 -75.5t-75.5 -30.5z" />
<glyph unicode="&#xec;" horiz-adv-x="558" d="M184 1000h190v-1000h-190v1000zM-73 1408l114 117l333 -286l-91 -91z" />
<glyph unicode="&#xed;" horiz-adv-x="558" d="M184 1000h190v-1000h-190v1000zM170 1235l333 286l116 -116l-356 -260z" />
<glyph unicode="&#xee;" horiz-adv-x="558" d="M184 1000h190v-1000h-190v1000zM-29 1232l310 294l308 -292l-93 -89l-221 185l-213 -185z" />
<glyph unicode="&#xef;" horiz-adv-x="558" d="M184 1000h190v-1000h-190v1000zM476 1222q-45 0 -75.5 30.5t-30.5 75.5t30.5 75.5t75.5 30.5t75.5 -30.5t30.5 -75.5t-30.5 -75.5t-75.5 -30.5zM84 1222q-45 0 -75.5 30.5t-30.5 75.5t30.5 75.5t75.5 30.5t75.5 -30.5t30.5 -75.5t-30.5 -75.5t-75.5 -30.5z" />
<glyph unicode="&#xf0;" horiz-adv-x="1290" d="M413 1561q212 -39 377 -141l194 139l91 -124l-158 -113q273 -258 273 -701q0 -289 -151 -463q-153 -178 -413 -178q-234 0 -380 126q-151 131 -151 356q0 222 161 367q157 141 388 141q191 0 326 -101q-57 214 -206 343l-216 -155l-91 124l171 123q-119 61 -280 92z M1000 610l-1 44q-176 156 -373 156q-149 0 -246 -93q-95 -92 -95 -243q0 -156 100 -246q97 -88 259 -88q169 0 264 128q92 125 92 342z" />
<glyph unicode="&#xf1;" horiz-adv-x="1337" d="M358 901q157 119 360 119q456 0 456 -501v-519h-190v507q0 173 -60 257q-67 96 -219 96q-163 0 -273 -80q-36 -25 -58 -58v-722h-190v1000h145zM534 1310q-74 0 -137 -111l-97 71q62 140 195 176q30 8 67.5 8t72 -17.5t63.5 -38.5l54 -38q25 -17 48 -17q73 0 137 111 l96 -59q-66 -150 -194 -187q-30 -9 -68 -9t-72 17.5t-63 37.5l-55 38q-25 18 -47 18z" />
<glyph unicode="&#xf2;" horiz-adv-x="1290" d="M95 491q0 114 45 211t122 168q163 150 392 150q231 0 385 -143q156 -145 156 -373q0 -223 -167 -375q-162 -149 -392 -149q-234 0 -386 142q-155 144 -155 369zM285 502q0 -78 28 -144.5t77 -115.5q104 -102 264 -102q149 0 250 102q101 100 101 251q0 158 -105 263 q-104 104 -264 104q-149 0 -250 -103q-101 -102 -101 -255zM361 1408l114 117l333 -286l-91 -91z" />
<glyph unicode="&#xf3;" horiz-adv-x="1290" d="M95 491q0 114 45 211t122 168q163 150 392 150q231 0 385 -143q156 -145 156 -373q0 -223 -167 -375q-162 -149 -392 -149q-234 0 -386 142q-155 144 -155 369zM285 502q0 -78 28 -144.5t77 -115.5q104 -102 264 -102q149 0 250 102q101 100 101 251q0 158 -105 263 q-104 104 -264 104q-149 0 -250 -103q-101 -102 -101 -255zM492 1235l333 286l116 -116l-356 -260z" />
<glyph unicode="&#xf4;" horiz-adv-x="1290" d="M95 491q0 114 45 211t122 168q163 150 392 150q231 0 385 -143q156 -145 156 -373q0 -223 -167 -375q-162 -149 -392 -149q-234 0 -386 142q-155 144 -155 369zM285 502q0 -78 28 -144.5t77 -115.5q104 -102 264 -102q149 0 250 102q101 100 101 251q0 158 -105 263 q-104 104 -264 104q-149 0 -250 -103q-101 -102 -101 -255zM336 1232l310 294l308 -292l-93 -89l-221 185l-213 -185z" />
<glyph unicode="&#xf5;" horiz-adv-x="1290" d="M95 491q0 114 45 211t122 168q163 150 392 150q231 0 385 -143q156 -145 156 -373q0 -223 -167 -375q-162 -149 -392 -149q-234 0 -386 142q-155 144 -155 369zM285 502q0 -78 28 -144.5t77 -115.5q104 -102 264 -102q149 0 250 102q101 100 101 251q0 158 -105 263 q-104 104 -264 104q-149 0 -250 -103q-101 -102 -101 -255zM512 1310q-74 0 -137 -111l-97 71q62 140 195 176q30 8 67.5 8t72 -17.5t63.5 -38.5l54 -38q25 -17 48 -17q73 0 137 111l96 -59q-66 -150 -194 -187q-30 -9 -68 -9t-72 17.5t-63 37.5l-55 38q-25 18 -47 18z" />
<glyph unicode="&#xf6;" horiz-adv-x="1290" d="M95 491q0 114 45 211t122 168q163 150 392 150q231 0 385 -143q156 -145 156 -373q0 -223 -167 -375q-162 -149 -392 -149q-234 0 -386 142q-155 144 -155 369zM285 502q0 -78 28 -144.5t77 -115.5q104 -102 264 -102q149 0 250 102q101 100 101 251q0 158 -105 263 q-104 104 -264 104q-149 0 -250 -103q-101 -102 -101 -255zM841 1222q-45 0 -75.5 30.5t-30.5 75.5t30.5 75.5t75.5 30.5t75.5 -30.5t30.5 -75.5t-30.5 -75.5t-75.5 -30.5zM449 1222q-45 0 -75.5 30.5t-30.5 75.5t30.5 75.5t75.5 30.5t75.5 -30.5t30.5 -75.5t-30.5 -75.5 t-75.5 -30.5z" />
<glyph unicode="&#xf7;" horiz-adv-x="1336" d="M758 799q-34 -34 -90 -34t-90 34t-34 90t34 89.5t90 33.5t90 -33.5t34 -89.5t-34 -90zM207 613h922v-168h-922v168zM578 81q-34 34 -34 90t34 89.5t90 33.5t90 -33.5t34 -89.5t-34 -90t-90 -34t-90 34z" />
<glyph unicode="&#xf8;" horiz-adv-x="1290" d="M625 -20q-124 0 -238 51l-120 -163l-120 87l115 156q-167 146 -167 381q0 224 167 378q163 150 392 150q126 0 239 -48l107 145l120 -87l-100 -136q175 -149 175 -390q0 -223 -167 -375q-162 -149 -403 -149zM789 830q-75 30 -151.5 30t-140.5 -27.5t-111 -75.5 q-101 -102 -101 -253q0 -144 87 -243zM491 173q76 -33 157 -33t145 27t111 75q101 100 101 251q0 150 -95 251z" />
<glyph unicode="&#xf9;" horiz-adv-x="1295" d="M937 97q-138 -117 -334 -117q-240 0 -343 127q-97 118 -97 374v519h190v-507q0 -174 52 -256q61 -97 211 -97q153 0 253 84q31 26 52 57v719h190v-1000h-145zM323 1408l114 117l333 -286l-91 -91z" />
<glyph unicode="&#xfa;" horiz-adv-x="1295" d="M937 97q-138 -117 -334 -117q-240 0 -343 127q-97 118 -97 374v519h190v-507q0 -174 52 -256q61 -97 211 -97q153 0 253 84q31 26 52 57v719h190v-1000h-145zM512 1235l333 286l116 -116l-356 -260z" />
<glyph unicode="&#xfb;" horiz-adv-x="1295" d="M937 97q-138 -117 -334 -117q-240 0 -343 127q-97 118 -97 374v519h190v-507q0 -174 52 -256q61 -97 211 -97q153 0 253 84q31 26 52 57v719h190v-1000h-145zM338 1232l310 294l308 -292l-93 -89l-221 185l-213 -185z" />
<glyph unicode="&#xfc;" horiz-adv-x="1295" d="M937 97q-138 -117 -334 -117q-240 0 -343 127q-97 118 -97 374v519h190v-507q0 -174 52 -256q61 -97 211 -97q153 0 253 84q31 26 52 57v719h190v-1000h-145zM843 1222q-45 0 -75.5 30.5t-30.5 75.5t30.5 75.5t75.5 30.5t75.5 -30.5t30.5 -75.5t-30.5 -75.5t-75.5 -30.5z M451 1222q-45 0 -75.5 30.5t-30.5 75.5t30.5 75.5t75.5 30.5t75.5 -30.5t30.5 -75.5t-30.5 -75.5t-75.5 -30.5z" />
<glyph unicode="&#xfd;" horiz-adv-x="1057" d="M79 -299q51 -19 104.5 -19t86.5 21.5t60 58.5q48 63 98 192l10 26l-398 1020h197l210 -543q17 -44 31 -89l25 -82q12 -43 22 -83h10l23 73q26 79 62 172l215 552h182l-395 -1000q-144 -366 -314 -455q-61 -32 -116.5 -32t-84 9t-60.5 34zM410 1235l333 286l116 -116 l-356 -260z" />
<glyph unicode="&#xfe;" horiz-adv-x="1269" d="M602 -20q-122 0 -228 22v-469h-190v2029h190v-645q139 103 324 103q216 0 347 -136q129 -135 129 -354q0 -245 -164 -399q-160 -151 -408 -151zM374 173q141 -33 236 -33t163 26.5t115 75.5q96 100 96 276q0 148 -78 242q-83 100 -221 100q-158 0 -259 -78 q-32 -26 -52 -59v-550z" />
<glyph unicode="&#xff;" horiz-adv-x="1057" d="M79 -299q51 -19 104.5 -19t86.5 21.5t60 58.5q48 63 98 192l10 26l-398 1020h197l210 -543q17 -44 31 -89l25 -82q12 -43 22 -83h10l23 73q26 79 62 172l215 552h182l-395 -1000q-144 -366 -314 -455q-61 -32 -116.5 -32t-84 9t-60.5 34zM724 1222q-45 0 -75.5 30.5 t-30.5 75.5t30.5 75.5t75.5 30.5t75.5 -30.5t30.5 -75.5t-30.5 -75.5t-75.5 -30.5zM332 1222q-45 0 -75.5 30.5t-30.5 75.5t30.5 75.5t75.5 30.5t75.5 -30.5t30.5 -75.5t-30.5 -75.5t-75.5 -30.5z" />
<glyph unicode="&#x127;" horiz-adv-x="1337" d="M374 913q148 107 344 107q456 0 456 -501v-519h-189l-1 507q0 173 -60 257q-67 96 -219 96q-163 0 -273 -80q-36 -25 -58 -58v-722h-190v1205h-179v154h179v203l190 -1v-202h281v-154h-281v-292z" />
<glyph unicode="&#x128;" horiz-adv-x="553" d="M184 1416h185v-1416h-185v1416zM431 1720q73 0 129 88l98 -62q-65 -133 -194 -166q-30 -7 -68 -7t-78 13.5t-77 29.5l-69 31q-31 14 -57 14q-47 0 -96 -44q-22 -19 -39 -44l-105 71q54 89 155 138q51 26 106 26t95.5 -14t77.5 -30l68 -30q31 -14 54 -14z" />
<glyph unicode="&#x129;" horiz-adv-x="558" d="M184 1000h190v-1000h-190v1000zM146 1310q-74 0 -137 -111l-97 71q62 140 195 176q30 8 67.5 8t72 -17.5t63.5 -38.5l54 -38q25 -17 48 -17q73 0 137 111l96 -59q-66 -150 -194 -187q-30 -9 -68 -9t-72 17.5t-63 37.5l-55 38q-25 18 -47 18z" />
<glyph unicode="&#x131;" horiz-adv-x="558" d="M184 1000h190v-1000h-190v1000z" />
<glyph unicode="&#x132;" horiz-adv-x="1428" d="M776 299q19 -72 54 -112.5t103.5 -40.5t97 52t28.5 156v1062h185v-1032q0 -206 -88 -305t-251 -99q-107 0 -181 74q-72 72 -92 200zM184 1416h185v-1416h-185v1416z" />
<glyph unicode="&#x133;" horiz-adv-x="1102" d="M369 1321q-34 -34 -90 -34t-90 34t-34 90t34 89.5t90 33.5t90 -33.5t34 -89.5t-34 -90zM184 1000h190v-1000h-190v1000zM913 1321q-34 -34 -90 -34t-90 34t-34 90t34 89.5t90 33.5t90 -33.5t34 -89.5t-34 -90zM728 1000h190v-1065q0 -242 -130 -352q-45 -38 -109 -68 l-80 129q71 43 99 99q30 59 30 172v1085z" />
<glyph unicode="&#x134;" horiz-adv-x="1190" d="M540 146q281 0 281 356v914h185v-894q0 -392 -271 -504q-92 -38 -203.5 -38t-191 40t-134.5 108q-116 140 -116 345l180 25q0 -144 68 -242q75 -110 202 -110zM518 1622l390 264l398 -261l-103 -89l-301 166l-293 -167z" />
<glyph unicode="&#x135;" horiz-adv-x="558" d="M184 1000h190v-1065q0 -242 -130 -352q-45 -38 -109 -68l-80 129q71 43 99 99q30 59 30 172v1085zM-29 1232l310 294l308 -292l-93 -89l-221 185l-213 -185z" />
<glyph unicode="&#x137;" horiz-adv-x="1112" d="M184 1561h190v-1001l449 440h222l-470 -460l280 -302q89 -94 212 -103l-29 -135q-151 -21 -246 56q-29 24 -57 55l-361 390v-501h-190v1561zM414 -445q101 186 69 327l162 19q34 -148 -78 -313q-29 -43 -57 -74z" />
<glyph unicode="&#x138;" horiz-adv-x="1112" d="M184 1000h190v-440l449 440h222l-470 -460l280 -302q89 -94 212 -103l-29 -135q-151 -21 -246 56q-29 24 -57 55l-361 390v-501h-190v1000z" />
<glyph unicode="&#x140;" horiz-adv-x="902" d="M184 1561h190v-1219q0 -102 14 -136q28 -65 96 -83l-28 -123q-155 -20 -221 82q-51 80 -51 246v1233zM737.159 610.661q-38.251 -38.251 -101.252 -38.251q-63.002 0 -101.253 38.251t-38.251 101.252q0 63.002 38.251 100.803q38.251 37.8018 101.253 37.8018 q63.001 0 101.252 -37.8018q38.251 -37.8008 38.251 -100.803q0 -63.001 -38.251 -101.252z" />
<glyph unicode="&#x141;" horiz-adv-x="1328" d="M304 504l-219 -98l-62 141l281 125v744h185v-661l468 209l62 -141l-530 -237v-418h772v-168h-957v504z" />
<glyph unicode="&#x142;" horiz-adv-x="715" d="M254 610l-130 -58l-63 141l193 86v782h190v-698l177 79l63 -141l-240 -107v-352q0 -102 14 -136q28 -65 96 -83l-28 -123q-155 -20 -221 82q-51 80 -51 246v282z" />
<glyph unicode="&#x143;" horiz-adv-x="1607" d="M184 1416h162l912 -1118v1118h165v-1416h-155l-919 1126v-1126h-165v1416zM536 1646l485 230l89 -137l-502 -201z" />
<glyph unicode="&#x144;" horiz-adv-x="1337" d="M358 901q157 119 360 119q456 0 456 -501v-519h-190v507q0 173 -60 257q-67 96 -219 96q-163 0 -273 -80q-36 -25 -58 -58v-722h-190v1000h145zM520 1235l333 286l116 -116l-356 -260z" />
<glyph unicode="&#x152;" horiz-adv-x="2252" d="M197.5 405q-60.5 131 -60.5 264t27.5 230.5t78.5 180t122 148.5t158 112q182 96 397 96q93 0 184 -20h1019v-168h-852v-382h757v-168h-757v-530h872v-168h-1053q-92 -20 -218.5 -20t-265.5 52.5t-243.5 147t-165 225.5zM377.5 941q-44.5 -100 -44.5 -220t46 -225 t126 -183q171 -167 415 -167q88 0 166 22v1073q-89 29 -195.5 29t-210 -41.5t-181 -114.5t-122 -173z" />
<glyph unicode="&#x153;" horiz-adv-x="2017" d="M1499 -20q-304 0 -421 200q-118 -143 -313 -186q-63 -14 -153.5 -14t-189.5 37t-172 105q-155 144 -155 370q0 224 167 378q163 150 392 150q212 0 362 -124q48 -39 84 -89q69 98 176.5 155.5t218 57.5t184.5 -27t127 -81q115 -114 115 -321q0 -71 -20 -191h-696 q22 -121 98 -190.5t215 -69.5q186 0 341 68l32 -143q-103 -60 -293 -79q-54 -6 -99 -6zM1740 547l4 54q0 183 -137 243q-46 20 -110 20t-117.5 -25t-92.5 -68q-80 -88 -90 -224h543zM285 502q0 -78 28 -144.5t77 -115.5q104 -102 264 -102q149 0 250 102q101 100 101 251 q0 158 -105 263q-104 104 -264 104q-149 0 -250 -103q-101 -102 -101 -255z" />
<glyph unicode="&#x154;" horiz-adv-x="1550" d="M1423 980q0 -315 -290 -435l269 -545h-215l-243 493q-99 -15 -207 -15h-368v-478h-185v1416h581q314 0 469 -86q189 -104 189 -350zM762 646q224 0 332 62q133 77 133 260q0 238 -308 270q-89 10 -183 10h-367v-602h393zM508 1646l485 230l89 -137l-502 -201z" />
<glyph unicode="&#x156;" horiz-adv-x="1550" d="M1423 980q0 -315 -290 -435l269 -545h-215l-243 493q-99 -15 -207 -15h-368v-478h-185v1416h581q314 0 469 -86q189 -104 189 -350zM762 646q224 0 332 62q133 77 133 260q0 238 -308 270q-89 10 -183 10h-367v-602h393zM530 -445q101 186 69 327l162 19 q34 -148 -78 -313q-29 -43 -57 -74z" />
<glyph unicode="&#x157;" horiz-adv-x="850" d="M758 791q-61 36 -124.5 36t-105 -32t-72.5 -81q-61 -94 -82 -220v-494h-190v1000h157l32 -183q77 141 197 187q43 16 78.5 16t52.5 -1.5t33 -4.5q32 -8 67 -24zM146 -445q101 186 69 327l162 19q34 -148 -78 -313q-29 -43 -57 -74z" />
<glyph unicode="&#x158;" horiz-adv-x="1550" d="M1423 980q0 -315 -290 -435l269 -545h-215l-243 493q-99 -15 -207 -15h-368v-478h-185v1416h581q314 0 469 -86q189 -104 189 -350zM762 646q224 0 332 62q133 77 133 260q0 238 -308 270q-89 10 -183 10h-367v-602h393zM265 1796l103 89l301 -164l293 165l91 -87 l-390 -264z" />
<glyph unicode="&#x159;" horiz-adv-x="850" d="M758 791q-61 36 -124.5 36t-105 -32t-72.5 -81q-61 -94 -82 -220v-494h-190v1000h157l32 -183q77 141 197 187q43 16 78.5 16t52.5 -1.5t33 -4.5q32 -8 67 -24zM116 1437l93 89l221 -185l213 185l91 -87l-310 -294z" />
<glyph unicode="&#x237;" horiz-adv-x="558" d="M184 1000h190v-1065q0 -242 -130 -352q-45 -38 -109 -68l-80 129q71 43 99 99q30 59 30 172v1085z" />
<glyph unicode="&#x2c6;" horiz-adv-x="598" d="M-11 1232l310 294l308 -292l-93 -89l-221 185l-213 -185z" />
<glyph unicode="&#x2c7;" horiz-adv-x="598" d="M-11 1437l93 89l221 -185l213 185l91 -87l-310 -294z" />
<glyph unicode="&#x2da;" horiz-adv-x="938" d="M551 1158.5q-43 -15.5 -90.5 -15.5t-88 13.5t-69.5 39.5q-61 55 -61 150q0 91 70 154q69 61 164 61q153 0 204 -119q17 -38 17 -86t-19.5 -86.5t-51.5 -67t-75 -44zM390.5 1273q32.5 -29 81.5 -29t79 28.5t30 77.5t-33 79.5t-82 30.5t-78.5 -30t-29.5 -79t32.5 -78z" />
<glyph unicode="&#x2dc;" horiz-adv-x="598" d="M167 1310q-74 0 -137 -111l-97 71q62 140 195 176q30 8 67.5 8t72 -17.5t63.5 -38.5l54 -38q25 -17 48 -17q73 0 137 111l96 -59q-66 -150 -194 -187q-30 -9 -68 -9t-72 17.5t-63 37.5l-55 38q-25 18 -47 18z" />
<glyph unicode="&#x3bc;" horiz-adv-x="1317" d="M958 98q-145 -118 -339 -118q-185 0 -293 70q28 -114 28 -249v-136h-191v1335h190v-507q0 -176 58 -259q66 -94 221 -94q151 0 258 85q32 26 53 57v718h190v-1000h-145z" />
<glyph unicode="&#x2013;" horiz-adv-x="1556" d="M267 669h1022v-154h-1022v154z" />
<glyph unicode="&#x2014;" horiz-adv-x="1636" d="M107 669h1422v-154h-1422v154z" />
<glyph unicode="&#x2018;" horiz-adv-x="527" d="M316 1250q52 -34 52 -90q0 -77 -76 -104q-23 -8 -49 -8t-49 10t-40 27q-34 36 -34 79t10.5 80.5t27.5 75.5t38.5 75t44.5 69q50 68 83 97l91 -51q-50 -65 -87 -194q-10 -37 -12 -66z" />
<glyph unicode="&#x2019;" horiz-adv-x="527" d="M211 1359q-52 34 -52 90q0 77 77 104q22 8 48 8t49 -10t39 -27q35 -36 35 -79.5t-10.5 -80.5t-27.5 -75t-38.5 -75t-44.5 -68q-50 -69 -83 -98l-91 51q53 73 86 193q11 38 13 67z" />
<glyph unicode="&#x201a;" horiz-adv-x="527" d="M211 32q-52 34 -52 90q0 77 77 104q22 8 48 8t49 -10t39 -27q35 -36 35 -79t-10.5 -80.5t-27.5 -75.5t-38.5 -75t-44.5 -69q-50 -68 -83 -97l-91 51q53 73 86 194q11 37 13 66z" />
<glyph unicode="&#x201c;" horiz-adv-x="881" d="M670 1125q52 -34 52 -90q0 -77 -76 -104q-23 -8 -49 -8t-49 10t-40 27q-34 36 -34 79.5t10.5 80.5t27.5 75t38.5 74.5t44.5 68.5q49 68 83 98l91 -51q-51 -65 -87 -193q-10 -38 -12 -67zM316 1125q52 -34 52 -90q0 -77 -76 -104q-23 -8 -49 -8t-49 10t-40 27 q-34 36 -34 79.5t10.5 80.5t27.5 75t38.5 74.5t44.5 68.5q49 68 83 98l91 -51q-50 -65 -87 -193q-10 -38 -12 -67z" />
<glyph unicode="&#x201d;" horiz-adv-x="881" d="M565 1234q-52 34 -52 90q0 77 77 104q22 8 48 8t49 -10t39 -27q35 -36 35 -79.5t-10.5 -80.5t-27.5 -75t-38.5 -74.5t-44.5 -68.5q-49 -68 -83 -98l-91 51q53 73 86 194q11 37 13 66zM211 1234q-52 34 -52 90q0 77 77 104q22 8 48 8t49 -10t39 -27q35 -36 35 -79.5 t-10.5 -80.5t-27.5 -75t-38.5 -74.5t-44.5 -68.5q-49 -68 -83 -98l-91 51q53 73 86 194q11 37 13 66z" />
<glyph unicode="&#x201e;" horiz-adv-x="881" d="M565 32q-52 34 -52 90q0 77 77 104q22 8 48 8t49 -10t39 -27q35 -36 35 -79t-10.5 -80.5t-27.5 -75.5t-38.5 -75t-44.5 -69q-50 -68 -83 -97l-91 51q53 73 86 194q11 37 13 66zM211 32q-52 34 -52 90q0 77 77 104q22 8 48 8t49 -10t39 -27q35 -36 35 -79t-10.5 -80.5 t-27.5 -75.5t-38.5 -75t-44.5 -69q-50 -68 -83 -97l-91 51q53 73 86 194q11 37 13 66z" />
<glyph unicode="&#x2022;" horiz-adv-x="622" d="M394.5 382q-37.5 -15 -83 -15t-83.5 15t-65 42q-56 54 -56 146t56 148t149 56q140 0 188 -120q15 -38 15 -83.5t-15 -83t-41.5 -64t-64 -41.5z" />
<glyph unicode="&#x2039;" horiz-adv-x="702" d="M107 531l425 413l103 -98l-298 -328l292 -314l-99 -106l-423 373v60z" />
<glyph unicode="&#x203a;" horiz-adv-x="702" d="M617.007 511.032l-424.975 -412.975l-102.993 97.9941l297.981 327.979l-291.982 313.981l98.9941 105.993l422.975 -372.978v-59.9961z" />
<glyph unicode="&#x20ac;" horiz-adv-x="1697" d="M482 795q-4 -36 -4 -89t11 -108h778l-20 -154h-709q101 -212 321 -276q73 -22 144 -22t133.5 11.5t121.5 31.5q125 43 200 104l72 -138q-147 -126 -379 -163q-75 -12 -176 -12t-209 33t-196 93q-178 124 -249 338h-256l20 154h202q-5 58 -5 102.5t6 94.5h-183l20 154h195 q70 223 253 354q185 133 442 133q291 0 502 -166l-93 -148q-166 148 -427 148t-405 -190q-46 -59 -74 -131h789l-20 -154h-805z" />
<glyph unicode="&#xe000;" horiz-adv-x="1000" d="M0 1000h1000v-1000h-1000v1000z" />
<glyph horiz-adv-x="598" d="M169 -445q101 186 69 327l162 19q34 -148 -78 -313q-29 -43 -57 -74z" />
<glyph horiz-adv-x="598" d="M20 1723l84 139l485 -211l-66 -109z" />
<glyph horiz-adv-x="598" d="M51 1646l485 230l89 -137l-502 -201z" />
<glyph horiz-adv-x="598" d="M-91 1622l390 264l398 -261l-103 -89l-301 166l-293 -167z" />
<glyph horiz-adv-x="598" d="M545 1572q-45 0 -75.5 30.5t-30.5 75.5t30.5 75.5t75.5 30.5t75.5 -30.5t30.5 -75.5t-30.5 -75.5t-75.5 -30.5zM53 1572q-45 0 -75.5 30.5t-30.5 75.5t30.5 75.5t75.5 30.5t75.5 -30.5t30.5 -75.5t-30.5 -75.5t-75.5 -30.5z" />
<glyph horiz-adv-x="598" d="M453 1720q73 0 129 88l98 -62q-65 -133 -194 -166q-30 -7 -68 -7t-78 13.5t-77 29.5l-69 31q-31 14 -57 14q-47 0 -96 -44q-22 -19 -39 -44l-105 71q54 89 155 138q51 26 106 26t95.5 -14t77.5 -30l68 -30q31 -14 54 -14z" />
<glyph horiz-adv-x="598" d="M-91 1796l103 89l301 -164l293 165l91 -87l-390 -264z" />
<glyph horiz-adv-x="938" d="M553.5 1528q-43.5 -14 -92 -14t-89.5 12.5t-71 37.5q-63 51 -63 147q0 93 71 153q68 56 167 56q156 0 208 -114q17 -37 17 -85.5t-19.5 -86.5t-52 -65t-76 -41zM390 1642.5q34 -25.5 82.5 -25.5t79.5 24.5t31 73t-34.5 75.5t-83 27t-79 -26t-30.5 -74.5t34 -74z" />
</font>
</defs>
</svg>
